<svg width="128" height="128" viewBox="0 0 128 128" fill="none" xmlns="http://www.w3.org/2000/svg">
<g clip-path="url(#clip0)">
<path d="M114.005 96.6397C113.984 97.1091 113.941 97.5784 113.877 98.0264L113.77 98.5811C112.731 104.543 108.186 109.283 102.272 110.57C100.374 111.009 98.406 111.052 96.4905 110.698L81.8131 108.117L44.9278 101.61H44.8851L29.2478 98.8584C27.8338 98.6006 26.6459 97.6455 26.0905 96.3197C25.7438 95.5665 25.6395 94.7242 25.7918 93.9091C26.1539 91.8719 27.9254 90.3882 29.9945 90.3891C30.2447 90.3892 30.4945 90.4106 30.7411 90.4531L44.9278 92.9491H44.9491L97.7065 102.25C100.764 102.855 103.824 101.222 105.024 98.3464C105.722 96.5572 105.583 94.5495 104.646 92.8731C103.709 91.1967 102.071 90.0273 100.181 89.6851L81.8131 86.4424H81.7918L32.9598 77.8451C30.7818 77.4636 29.2562 75.4814 29.4449 73.2783C29.6335 71.0752 31.474 69.3813 33.6851 69.3757C33.9354 69.3758 34.1852 69.3973 34.4318 69.4397L101.162 81.1944C108.695 82.422 114.173 89.0098 114.005 96.6397Z" fill="#FCCACA"/>
<path d="M105.024 98.3459C103.824 101.222 100.764 102.855 97.7069 102.25L44.9496 92.9486H44.9282L30.7416 90.4526L32.9602 77.8446L81.7922 86.4419H81.8136L100.182 89.6846C102.071 90.0268 103.709 91.1962 104.647 92.8726C105.584 94.549 105.722 96.5567 105.024 98.3459Z" fill="#FCE8E8"/>
<path d="M125.846 29.3968C125.82 30.0551 125.749 30.711 125.632 31.3594L113.878 98.0261C113.942 97.5781 113.984 97.1088 114.006 96.6394C114.173 89.0095 108.695 82.4217 101.163 81.1941L34.4324 69.4394C34.1858 69.3969 33.936 69.3755 33.6857 69.3754C31.6247 69.3848 29.8651 70.8662 29.5044 72.8954L37.9524 24.8741L41.3444 5.67409C41.5402 4.55584 42.1785 3.56373 43.1151 2.92209C44.0342 2.26349 45.1825 2.00916 46.2937 2.21809L113.024 13.9728C120.546 15.1984 126.015 21.7779 125.846 29.3968Z" fill="#FCE8E8"/>
<path d="M113.024 13.9725L46.2933 2.21781C45.2577 2.02934 44.1893 2.2438 43.3066 2.81728L106.624 13.9725C114.146 15.1982 119.615 21.7776 119.445 29.3965C119.42 30.0549 119.349 30.7107 119.232 31.3591L109.653 85.6418C112.584 88.5335 114.164 92.5248 114.005 96.6392C113.984 97.1085 113.941 97.5778 113.877 98.0258L125.632 31.3591C125.749 30.7107 125.82 30.0549 125.845 29.3965C126.015 21.7776 120.546 15.1982 113.024 13.9725Z" fill="#FCCACA"/>
<path d="M93.2626 43.0241L49.1345 35.2289C47.974 35.0239 46.867 35.7985 46.662 36.959L42.95 57.9724C42.745 59.1329 43.5196 60.2399 44.6801 60.4449L88.8082 68.2401C89.9687 68.4451 91.0757 67.6705 91.2807 66.51L94.9927 45.4966C95.1977 44.3361 94.4231 43.2291 93.2626 43.0241Z" fill="white"/>
<path d="M102.272 110.569C101.876 112.214 100.545 113.47 98.88 113.769L31.6373 125.631C27.6602 126.327 23.5709 125.384 20.2999 123.017C17.029 120.65 14.8547 117.061 14.272 113.065C14.1895 112.564 14.1396 112.058 14.1226 111.551C13.9546 104.264 18.9712 97.8794 26.0906 96.3187C26.646 97.6445 27.8339 98.5996 29.248 98.8574L44.8853 101.609L27.9466 104.617C26.0551 104.95 24.4123 106.113 23.4701 107.786C22.528 109.46 22.3858 111.468 23.0826 113.257C24.2893 116.14 27.3539 117.779 30.4213 117.183L81.8133 108.116L96.4906 110.697C98.4062 111.051 100.374 111.008 102.272 110.569Z" fill="#F7A4A4"/>
<path d="M81.8136 108.116L30.4216 117.183C27.3542 117.779 24.2896 116.14 23.0829 113.258C22.386 111.468 22.5282 109.46 23.4704 107.787C24.4125 106.113 26.0554 104.95 27.9469 104.618L44.8856 101.61H44.9282L81.8136 108.116Z" fill="#FCE8E8"/>
<path d="M32.9598 77.8458L30.7411 90.4538C30.4945 90.4113 30.2447 90.3899 29.9944 90.3898C27.9254 90.3889 26.1539 91.8727 25.7918 93.9098C25.6395 94.7249 25.7438 95.5672 26.0904 96.3205C18.971 97.8811 13.9544 104.266 14.1224 111.552C14.1394 112.06 14.1893 112.566 14.2718 113.067L2.49578 46.2938C2.38145 45.645 2.31019 44.9893 2.28245 44.3311C2.10649 36.71 7.57881 30.1268 15.1038 28.9071L37.9518 24.8751L29.5038 72.8965C29.3005 74.0117 29.5513 75.1619 30.2003 76.0914C30.8493 77.0209 31.8428 77.6525 32.9598 77.8458Z" fill="#F7A4A4"/>
<path d="M2.28245 44.3311C2.32725 45.6837 1.47818 40.5338 14.2718 113.067C14.8545 117.062 17.0288 120.652 20.2997 123.019C23.5707 125.385 27.6601 126.328 31.6371 125.632L32.3134 125.513C26.2142 124.203 21.5718 119.24 20.6718 113.067C7.87178 40.5338 8.72511 45.6837 8.68245 44.3311C8.50649 36.71 13.9788 30.1268 21.5038 28.9071L44.3518 24.8751L47.7438 5.67513C47.965 4.47732 48.694 3.43396 49.7427 2.81433C44.7998 1.96953 45.3822 2.1338 44.8894 2.217C43.0864 2.48635 41.6581 3.8794 41.3438 5.67513L37.9518 24.8751L15.1038 28.9071C7.57881 30.1268 2.10649 36.71 2.28245 44.3311Z" fill="white"/>
<path d="M0.374512 46.6708L4.57718 45.9326L7.52971 62.7433L3.32704 63.4814L0.374512 46.6708Z" fill="white"/>
<path d="M50.3724 15.9246L98.6945 24.4451C98.8178 24.4664 98.9427 24.4771 99.0678 24.4771C100.174 24.4765 101.096 23.6302 101.192 22.528C101.288 21.4257 100.525 20.4334 99.4347 20.2425L51.1148 11.7326C49.9543 11.5276 48.8473 12.3022 48.6423 13.4627C48.4373 14.6233 49.2119 15.7303 50.3724 15.9353V15.9246Z" fill="#FF4242"/>
<path d="M57.6642 23.7096C56.52 23.5381 55.4477 24.3098 55.2469 25.4491C55.0462 26.5885 55.7901 27.6802 56.9239 27.9102L88.4375 33.4675C88.5606 33.4904 88.6856 33.5018 88.8108 33.5016C89.9176 33.5021 90.841 32.6561 90.9371 31.5535C91.0331 30.4509 90.2701 29.4579 89.1799 29.267L57.6642 23.7096Z" fill="#FF4242"/>
<path d="M44.322 62.5063L88.4436 70.2866C88.688 70.33 88.9357 70.3514 89.1839 70.3506C91.2527 70.349 93.0223 68.8636 93.3823 66.8263L97.0879 45.8151C97.4959 43.4954 95.947 41.2838 93.6276 40.8743L49.5103 33.1026C47.1906 32.6946 44.979 34.2434 44.5695 36.5628L40.8639 57.5698C40.4584 59.8873 42.0054 62.0957 44.322 62.5063ZM48.7679 37.3052L92.8895 45.0834L89.1881 66.0924L45.0644 58.3143L48.7679 37.3052Z" fill="#FF4242"/>
<path d="M12.2582 113.881C13.8915 123.153 22.7252 129.351 32 127.733L99.2385 115.871C101.255 115.512 102.976 114.205 103.861 112.358C110.051 110.568 114.693 105.425 115.84 99.0842C115.84 99.0415 115.879 99.0053 115.885 98.9626L127.742 31.7306C128.545 27.1846 127.473 22.507 124.769 18.7651C122.066 15.0232 117.962 12.5361 113.393 11.8714L46.6646 0.106073C45.003 -0.196963 43.2893 0.182986 41.9115 1.15994C40.5007 2.12076 39.5411 3.61395 39.2534 5.29647L36.1238 23.0394L14.7371 26.8047C6.14797 28.1747 -0.093137 35.702 0.151479 44.3962C0.180418 45.1496 0.260963 45.9002 0.392546 46.6426C0.563434 47.6705 1.45188 48.4246 2.49388 48.4261C2.61177 48.4262 2.72947 48.417 2.84588 48.3983C4.00729 48.2046 4.79215 47.1066 4.59948 45.945C3.99346 42.5126 4.81077 38.9813 6.86325 36.1642C8.91572 33.3471 12.0265 31.4868 15.4795 31.0117L35.3387 27.5066L27.3963 72.5327C26.9383 75.1954 28.2018 77.8589 30.5536 79.1887L28.9366 88.3621C26.2582 88.7838 24.1474 90.8671 23.6907 93.5397C23.6158 93.9728 23.585 94.4124 23.599 94.8517C19.829 96.1898 16.6238 98.7662 14.5067 102.16L7.55842 62.7301C7.354 61.5695 6.24749 60.7945 5.08695 60.9989C3.92641 61.2033 3.15133 62.3098 3.35575 63.4703L12.2347 113.883L12.2582 113.881ZM43.4497 6.03887C43.5496 5.47272 43.8783 4.97272 44.3585 4.65647C44.8094 4.32979 45.3753 4.20395 45.9222 4.30874L108.956 15.4234L107.021 26.3802C106.922 26.9375 107.049 27.5112 107.374 27.9749C107.698 28.4387 108.194 28.7544 108.751 28.8527C108.874 28.8739 108.998 28.8846 109.122 28.8847C110.157 28.884 111.041 28.1412 111.221 27.1226L113.141 16.2085C119.39 17.4088 123.859 22.9459 123.712 29.3071C123.686 29.8714 123.624 30.4336 123.529 30.9903L113.619 87.2335C111.021 83.0821 106.83 80.1816 102.029 79.2122L108.958 39.8778C109.114 39.1169 108.845 38.3311 108.254 37.8264C107.664 37.3217 106.846 37.1779 106.118 37.451C105.391 37.7242 104.87 38.371 104.757 39.1397L97.8326 78.4485L34.8075 67.3359C34.0895 67.2174 33.3566 67.2218 32.64 67.3487L43.4497 6.03887ZM99.8145 91.7989C101.079 92.021 102.177 92.801 102.802 93.9224C103.428 95.0437 103.515 96.3873 103.04 97.5802C102.191 99.4891 100.135 100.557 98.0844 100.155L33.2032 88.7162L34.6966 80.313L99.8145 91.7989ZM28.7744 92.9018C29.1321 92.6512 29.558 92.5165 29.9947 92.5157C30.1199 92.5165 30.2448 92.5279 30.368 92.5498L97.3548 104.36C101.42 105.143 105.473 102.946 107.036 99.1119C107.971 96.7284 107.786 94.0512 106.532 91.8188C105.279 89.5864 103.089 88.0348 100.568 87.5919L33.327 75.7327C32.1681 75.5269 31.3949 74.4215 31.599 73.2623C31.8038 72.1036 32.9081 71.3295 34.0672 71.5322L100.783 83.2954C107.273 84.3012 112.016 89.9561 111.876 96.5221C111.719 100.211 109.979 103.653 107.102 105.967C104.225 108.28 100.49 109.241 96.8534 108.603L29.6235 96.7503C28.7783 96.5974 28.1072 95.9524 27.9209 95.1139C27.7345 94.2754 28.0693 93.4069 28.7702 92.9103L28.7744 92.9018ZM69.5339 108.121L30.0672 115.084C28.0089 115.492 25.9423 114.42 25.0902 112.503C24.6149 111.308 24.7041 109.962 25.333 108.84C25.9619 107.718 27.0632 106.94 28.3307 106.722L44.9153 103.78L69.5339 108.121ZM25.199 98.8431C26.1475 99.9481 27.4479 100.692 28.8811 100.951L32.6528 101.616L27.5798 102.517C25.0586 102.955 22.8674 104.502 21.61 106.731C20.3526 108.96 20.1618 111.635 21.0902 114.02C22.414 117.325 25.6368 119.473 29.1968 119.423C29.7303 119.423 30.2629 119.377 30.7883 119.285L81.8092 110.293L94.0801 112.45L31.2683 123.53C27.6407 124.161 23.9169 123.204 21.0432 120.902C18.147 118.602 16.398 115.153 16.2539 111.458C16.1149 105.736 19.7539 100.605 25.199 98.8431Z" fill="#FF4242"/>
<path d="M4.01903 56.8293C2.84082 56.8352 1.88092 55.8848 1.87503 54.7066C1.86914 53.5284 2.81949 52.5685 3.99769 52.5626H4.01903C5.19723 52.5626 6.15236 53.5178 6.15236 54.696C6.15236 55.8742 5.19723 56.8293 4.01903 56.8293Z" fill="#FF4242"/>
</g>
<defs>
<clipPath id="clip0">
<rect width="128" height="128" fill="white"/>
</clipPath>
</defs>
</svg>
