<svg width="1280" height="437" viewBox="0 0 1280 437" fill="none" xmlns="http://www.w3.org/2000/svg">
<g filter="url(#filter0_d)">
<rect x="880" y="40" width="360" height="357" rx="10" fill="white"/>
</g>
<g clip-path="url(#clip0)">
<path d="M1110.01 200.64C1109.98 201.109 1109.94 201.578 1109.88 202.026L1109.77 202.581C1108.73 208.543 1104.19 213.283 1098.27 214.57C1096.37 215.009 1094.41 215.052 1092.49 214.698L1077.81 212.117L1040.93 205.61H1040.89L1025.25 202.858C1023.83 202.601 1022.65 201.645 1022.09 200.32C1021.74 199.566 1021.64 198.724 1021.79 197.909C1022.15 195.872 1023.93 194.388 1025.99 194.389C1026.24 194.389 1026.49 194.411 1026.74 194.453L1040.93 196.949H1040.95L1093.71 206.25C1096.76 206.855 1099.82 205.222 1101.02 202.346C1101.72 200.557 1101.58 198.549 1100.65 196.873C1099.71 195.197 1098.07 194.027 1096.18 193.685L1077.81 190.442H1077.79L1028.96 181.845C1026.78 181.464 1025.26 179.481 1025.44 177.278C1025.63 175.075 1027.47 173.381 1029.69 173.376C1029.94 173.376 1030.19 173.397 1030.43 173.44L1097.16 185.194C1104.69 186.422 1110.17 193.01 1110.01 200.64Z" fill="#FCCACA"/>
<path d="M1101.02 202.346C1099.82 205.222 1096.76 206.855 1093.71 206.25L1040.95 196.949H1040.93L1026.74 194.453L1028.96 181.845L1077.79 190.442H1077.81L1096.18 193.685C1098.07 194.027 1099.71 195.196 1100.65 196.873C1101.58 198.549 1101.72 200.557 1101.02 202.346Z" fill="#FCE8E8"/>
<path d="M1121.85 133.397C1121.82 134.055 1121.75 134.711 1121.63 135.359L1109.88 202.026C1109.94 201.578 1109.98 201.109 1110.01 200.639C1110.17 193.01 1104.7 186.422 1097.16 185.194L1030.43 173.439C1030.19 173.397 1029.94 173.376 1029.69 173.375C1027.62 173.385 1025.87 174.866 1025.5 176.895L1033.95 128.874L1037.34 109.674C1037.54 108.556 1038.18 107.564 1039.12 106.922C1040.03 106.263 1041.18 106.009 1042.29 106.218L1109.02 117.973C1116.55 119.198 1122.02 125.778 1121.85 133.397Z" fill="#FCE8E8"/>
<path d="M1109.02 117.972L1042.29 106.218C1041.26 106.029 1040.19 106.244 1039.31 106.817L1102.62 117.972C1110.15 119.198 1115.61 125.778 1115.45 133.396C1115.42 134.055 1115.35 134.711 1115.23 135.359L1105.65 189.642C1108.58 192.534 1110.16 196.525 1110.01 200.639C1109.98 201.108 1109.94 201.578 1109.88 202.026L1121.63 135.359C1121.75 134.711 1121.82 134.055 1121.85 133.396C1122.01 125.778 1116.55 119.198 1109.02 117.972Z" fill="#FCCACA"/>
<path d="M1089.26 147.024L1045.13 139.229C1043.97 139.024 1042.87 139.798 1042.66 140.959L1038.95 161.972C1038.74 163.133 1039.52 164.24 1040.68 164.445L1084.81 172.24C1085.97 172.445 1087.08 171.67 1087.28 170.51L1090.99 149.497C1091.2 148.336 1090.42 147.229 1089.26 147.024Z" fill="white"/>
<path d="M1098.27 214.569C1097.88 216.214 1096.55 217.47 1094.88 217.769L1027.64 229.631C1023.66 230.327 1019.57 229.384 1016.3 227.017C1013.03 224.65 1010.85 221.061 1010.27 217.065C1010.19 216.564 1010.14 216.058 1010.12 215.551C1009.95 208.264 1014.97 201.879 1022.09 200.319C1022.65 201.644 1023.83 202.6 1025.25 202.857L1040.89 205.609L1023.95 208.617C1022.06 208.95 1020.41 210.113 1019.47 211.786C1018.53 213.46 1018.39 215.468 1019.08 217.257C1020.29 220.14 1023.35 221.779 1026.42 221.183L1077.81 212.116L1092.49 214.697C1094.41 215.051 1096.37 215.008 1098.27 214.569Z" fill="#F7A4A4"/>
<path d="M1077.81 212.116L1026.42 221.183C1023.35 221.779 1020.29 220.14 1019.08 217.258C1018.39 215.468 1018.53 213.46 1019.47 211.787C1020.41 210.113 1022.06 208.95 1023.95 208.618L1040.89 205.61H1040.93L1077.81 212.116Z" fill="#FCE8E8"/>
<path d="M1028.96 181.846L1026.74 194.454C1026.49 194.411 1026.24 194.39 1025.99 194.39C1023.93 194.389 1022.15 195.873 1021.79 197.91C1021.64 198.725 1021.74 199.567 1022.09 200.32C1014.97 201.881 1009.95 208.266 1010.12 215.552C1010.14 216.06 1010.19 216.566 1010.27 217.067L998.496 150.294C998.382 149.645 998.31 148.989 998.283 148.331C998.107 140.71 1003.58 134.127 1011.1 132.907L1033.95 128.875L1025.5 176.896C1025.3 178.012 1025.55 179.162 1026.2 180.091C1026.85 181.021 1027.84 181.652 1028.96 181.846Z" fill="#F7A4A4"/>
<path d="M998.283 148.331C998.327 149.684 997.478 144.534 1010.27 217.067C1010.85 221.062 1013.03 224.652 1016.3 227.019C1019.57 229.385 1023.66 230.328 1027.64 229.632L1028.31 229.513C1022.21 228.203 1017.57 223.24 1016.67 217.067C1003.87 144.534 1004.73 149.684 1004.68 148.331C1004.51 140.71 1009.98 134.127 1017.5 132.907L1040.35 128.875L1043.74 109.675C1043.97 108.477 1044.69 107.434 1045.74 106.814C1040.8 105.97 1041.38 106.134 1040.89 106.217C1039.09 106.486 1037.66 107.879 1037.34 109.675L1033.95 128.875L1011.1 132.907C1003.58 134.127 998.107 140.71 998.283 148.331Z" fill="white"/>
<path d="M996.375 150.671L1000.58 149.933L1003.53 166.743L999.327 167.481L996.375 150.671Z" fill="white"/>
<path d="M1046.37 119.925L1094.69 128.445C1094.82 128.466 1094.94 128.477 1095.07 128.477C1096.17 128.477 1097.1 127.63 1097.19 126.528C1097.29 125.426 1096.52 124.433 1095.43 124.242L1047.11 115.733C1045.95 115.528 1044.85 116.302 1044.64 117.463C1044.44 118.623 1045.21 119.73 1046.37 119.935V119.925Z" fill="#FF4242"/>
<path d="M1053.66 127.71C1052.52 127.538 1051.45 128.31 1051.25 129.449C1051.05 130.588 1051.79 131.68 1052.92 131.91L1084.44 137.467C1084.56 137.49 1084.69 137.502 1084.81 137.502C1085.92 137.502 1086.84 136.656 1086.94 135.554C1087.03 134.451 1086.27 133.458 1085.18 133.267L1053.66 127.71Z" fill="#FF4242"/>
<path d="M1040.32 166.506L1084.44 174.287C1084.69 174.33 1084.94 174.351 1085.18 174.351C1087.25 174.349 1089.02 172.864 1089.38 170.826L1093.09 149.815C1093.5 147.495 1091.95 145.284 1089.63 144.874L1045.51 137.103C1043.19 136.695 1040.98 138.243 1040.57 140.563L1036.86 161.57C1036.46 163.887 1038.01 166.096 1040.32 166.506ZM1044.77 141.305L1088.89 149.083L1085.19 170.092L1041.06 162.314L1044.77 141.305Z" fill="#FF4242"/>
<path d="M1008.26 217.881C1009.89 227.153 1018.73 233.351 1028 231.733L1095.24 219.871C1097.26 219.512 1098.98 218.205 1099.86 216.358C1106.05 214.568 1110.69 209.425 1111.84 203.084C1111.84 203.042 1111.88 203.005 1111.88 202.963L1123.74 135.731C1124.55 131.185 1123.47 126.507 1120.77 122.765C1118.07 119.023 1113.96 116.536 1109.39 115.871L1042.66 104.106C1041 103.803 1039.29 104.183 1037.91 105.16C1036.5 106.121 1035.54 107.614 1035.25 109.296L1032.12 127.039L1010.74 130.805C1002.15 132.175 995.907 139.702 996.152 148.396C996.18 149.15 996.261 149.9 996.393 150.643C996.563 151.671 997.452 152.425 998.494 152.426C998.612 152.426 998.73 152.417 998.846 152.398C1000.01 152.205 1000.79 151.107 1000.6 149.945C999.994 146.513 1000.81 142.981 1002.86 140.164C1004.92 137.347 1008.03 135.487 1011.48 135.012L1031.34 131.507L1023.4 176.533C1022.94 179.195 1024.2 181.859 1026.55 183.189L1024.94 192.362C1022.26 192.784 1020.15 194.867 1019.69 197.54C1019.62 197.973 1019.59 198.412 1019.6 198.852C1015.83 200.19 1012.62 202.766 1010.51 206.16L1003.56 166.73C1003.35 165.57 1002.25 164.794 1001.09 164.999C999.926 165.203 999.151 166.31 999.356 167.47L1008.23 217.883L1008.26 217.881ZM1039.45 110.039C1039.55 109.473 1039.88 108.973 1040.36 108.656C1040.81 108.33 1041.38 108.204 1041.92 108.309L1104.96 119.423L1103.02 130.38C1102.92 130.938 1103.05 131.511 1103.37 131.975C1103.7 132.439 1104.19 132.754 1104.75 132.853C1104.87 132.874 1105 132.885 1105.12 132.885C1106.16 132.884 1107.04 132.141 1107.22 131.123L1109.14 120.208C1115.39 121.409 1119.86 126.946 1119.71 133.307C1119.69 133.871 1119.62 134.434 1119.53 134.99L1109.62 191.234C1107.02 187.082 1102.83 184.182 1098.03 183.212L1104.96 143.878C1105.11 143.117 1104.84 142.331 1104.25 141.826C1103.66 141.322 1102.85 141.178 1102.12 141.451C1101.39 141.724 1100.87 142.371 1100.76 143.14L1093.83 182.448L1030.81 171.336C1030.09 171.217 1029.36 171.222 1028.64 171.349L1039.45 110.039ZM1095.81 195.799C1097.08 196.021 1098.18 196.801 1098.8 197.922C1099.43 199.044 1099.52 200.387 1099.04 201.58C1098.19 203.489 1096.13 204.557 1094.08 204.155L1029.2 192.716L1030.7 184.313L1095.81 195.799ZM1024.77 196.902C1025.13 196.651 1025.56 196.516 1025.99 196.516C1026.12 196.516 1026.24 196.528 1026.37 196.55L1093.35 208.36C1097.42 209.143 1101.47 206.946 1103.04 203.112C1103.97 200.728 1103.79 198.051 1102.53 195.819C1101.28 193.586 1099.09 192.035 1096.57 191.592L1029.33 179.733C1028.17 179.527 1027.39 178.421 1027.6 177.262C1027.8 176.104 1028.91 175.33 1030.07 175.532L1096.78 187.295C1103.27 188.301 1108.02 193.956 1107.88 200.522C1107.72 204.211 1105.98 207.653 1103.1 209.967C1100.23 212.28 1096.49 213.241 1092.85 212.603L1025.62 200.75C1024.78 200.597 1024.11 199.952 1023.92 199.114C1023.73 198.275 1024.07 197.407 1024.77 196.91L1024.77 196.902ZM1065.53 212.121L1026.07 219.084C1024.01 219.492 1021.94 218.42 1021.09 216.503C1020.61 215.308 1020.7 213.962 1021.33 212.84C1021.96 211.718 1023.06 210.94 1024.33 210.722L1040.92 207.78L1065.53 212.121ZM1021.2 202.843C1022.15 203.948 1023.45 204.692 1024.88 204.951L1028.65 205.616L1023.58 206.517C1021.06 206.955 1018.87 208.502 1017.61 210.731C1016.35 212.96 1016.16 215.635 1017.09 218.02C1018.41 221.325 1021.64 223.473 1025.2 223.423C1025.73 223.423 1026.26 223.377 1026.79 223.285L1077.81 214.293L1090.08 216.45L1027.27 227.53C1023.64 228.161 1019.92 227.204 1017.04 224.902C1014.15 222.602 1012.4 219.153 1012.25 215.458C1012.11 209.736 1015.75 204.605 1021.2 202.843Z" fill="#FF4242"/>
<path d="M1000.02 160.829C998.841 160.835 997.881 159.885 997.875 158.707C997.869 157.528 998.82 156.569 999.998 156.563H1000.02C1001.2 156.563 1002.15 157.518 1002.15 158.696C1002.15 159.874 1001.2 160.829 1000.02 160.829Z" fill="#FF4242"/>
</g>
<path d="M983.654 350.272C983.654 344.176 974.822 346.528 974.822 342.76C974.822 341.152 976.046 340.384 977.63 340.432C979.358 340.48 980.342 341.512 980.438 342.64H983.462C983.222 339.784 980.966 338.104 977.774 338.104C974.366 338.104 972.038 339.928 972.038 342.856C972.038 349 980.894 346.384 980.894 350.416C980.894 351.832 979.814 352.864 977.894 352.864C975.998 352.864 975.038 351.76 974.918 350.392H971.99C971.99 353.344 974.558 355.168 977.894 355.168C981.614 355.168 983.654 352.768 983.654 350.272ZM985.97 348.328C985.97 352.408 988.73 355.216 992.162 355.216C994.37 355.216 995.954 354.16 996.794 353.032V355H999.554V341.776H996.794V343.696C995.978 342.616 994.442 341.56 992.21 341.56C988.73 341.56 985.97 344.248 985.97 348.328ZM996.794 348.376C996.794 351.232 994.85 352.84 992.786 352.84C990.746 352.84 988.778 351.184 988.778 348.328C988.778 345.472 990.746 343.936 992.786 343.936C994.85 343.936 996.794 345.544 996.794 348.376ZM1021.89 355H1024.6V347.2C1024.6 343.504 1022.25 341.56 1019.16 341.56C1017.24 341.56 1015.36 342.568 1014.55 344.176C1013.64 342.448 1011.88 341.56 1009.8 341.56C1008.21 341.56 1006.77 342.208 1005.88 343.288V341.776H1003.15V355H1005.88V347.608C1005.88 345.184 1007.2 343.936 1009.22 343.936C1011.21 343.936 1012.53 345.184 1012.53 347.608V355H1015.24V347.608C1015.24 345.184 1016.56 343.936 1018.58 343.936C1020.57 343.936 1021.89 345.184 1021.89 347.608V355ZM1030.82 343.744V337.24H1028.09V355H1030.82V353.08C1031.69 354.232 1033.25 355.216 1035.43 355.216C1038.91 355.216 1041.65 352.408 1041.65 348.328C1041.65 344.248 1038.93 341.56 1035.43 341.56C1033.34 341.56 1031.69 342.544 1030.82 343.744ZM1038.86 348.328C1038.86 351.184 1036.89 352.84 1034.83 352.84C1032.79 352.84 1030.82 351.232 1030.82 348.376C1030.82 345.544 1032.79 343.936 1034.83 343.936C1036.89 343.936 1038.86 345.472 1038.86 348.328ZM1056.33 341.776H1053.59V349.144C1053.59 351.568 1052.27 352.816 1050.25 352.816C1048.26 352.816 1046.94 351.568 1046.94 349.144V341.776H1044.23V349.552C1044.23 353.248 1046.58 355.192 1049.68 355.192C1051.24 355.192 1052.73 354.544 1053.59 353.416V355H1056.33V341.776ZM1069.32 355H1072.03V347.2C1072.03 343.504 1069.7 341.56 1066.61 341.56C1065.02 341.56 1063.56 342.208 1062.67 343.288V341.776H1059.94V355H1062.67V347.608C1062.67 345.184 1063.99 343.936 1066.01 343.936C1068 343.936 1069.32 345.184 1069.32 347.608V355ZM1074.61 348.328C1074.61 352.408 1077.37 355.216 1080.85 355.216C1083.01 355.216 1084.59 354.136 1085.43 353.008V355.216C1085.43 357.856 1083.85 359.152 1081.74 359.152C1079.84 359.152 1078.38 358.216 1077.97 356.848H1075.26C1075.59 359.776 1078.21 361.528 1081.74 361.528C1085.87 361.528 1088.19 358.816 1088.19 355.216V341.776H1085.43V343.696C1084.62 342.568 1083.01 341.56 1080.85 341.56C1077.37 341.56 1074.61 344.248 1074.61 348.328ZM1085.43 348.376C1085.43 351.232 1083.49 352.84 1081.43 352.84C1079.39 352.84 1077.42 351.184 1077.42 348.328C1077.42 345.472 1079.39 343.936 1081.43 343.936C1083.49 343.936 1085.43 345.544 1085.43 348.376ZM1098.02 355H1100.76V338.32H1098.02V355ZM1104.35 355H1107.09V337.24H1104.35V355ZM1129.42 355H1132.13V347.2C1132.13 343.504 1129.78 341.56 1126.69 341.56C1124.77 341.56 1122.89 342.568 1122.08 344.176C1121.17 342.448 1119.41 341.56 1117.33 341.56C1115.74 341.56 1114.3 342.208 1113.41 343.288V341.776H1110.68V355H1113.41V347.608C1113.41 345.184 1114.73 343.936 1116.75 343.936C1118.74 343.936 1120.06 345.184 1120.06 347.608V355H1122.77V347.608C1122.77 345.184 1124.09 343.936 1126.11 343.936C1128.1 343.936 1129.42 345.184 1129.42 347.608V355ZM1147.59 341.776H1144.86V349.144C1144.86 351.568 1143.54 352.816 1141.52 352.816C1139.53 352.816 1138.21 351.568 1138.21 349.144V341.776H1135.5V349.552C1135.5 353.248 1137.85 355.192 1140.94 355.192C1142.5 355.192 1143.99 354.544 1144.86 353.416V355H1147.59V341.776Z" fill="#F43B31"/>
<path d="M142.226 355.41C141.106 355.41 140.098 355.218 139.202 354.834C138.306 354.434 137.602 353.874 137.09 353.154C136.578 352.434 136.322 351.594 136.322 350.634H139.25C139.314 351.354 139.594 351.946 140.09 352.41C140.602 352.874 141.314 353.106 142.226 353.106C143.17 353.106 143.906 352.882 144.434 352.434C144.962 351.97 145.226 351.378 145.226 350.658C145.226 350.098 145.058 349.642 144.722 349.29C144.402 348.938 143.994 348.666 143.498 348.474C143.018 348.282 142.346 348.074 141.482 347.85C140.394 347.562 139.506 347.274 138.818 346.986C138.146 346.682 137.57 346.218 137.09 345.594C136.61 344.97 136.37 344.138 136.37 343.098C136.37 342.138 136.61 341.298 137.09 340.578C137.57 339.858 138.242 339.306 139.106 338.922C139.97 338.538 140.97 338.346 142.106 338.346C143.722 338.346 145.042 338.754 146.066 339.57C147.106 340.37 147.682 341.474 147.794 342.882H144.77C144.722 342.274 144.434 341.754 143.906 341.322C143.378 340.89 142.682 340.674 141.818 340.674C141.034 340.674 140.394 340.874 139.898 341.274C139.402 341.674 139.154 342.25 139.154 343.002C139.154 343.514 139.306 343.938 139.61 344.274C139.93 344.594 140.33 344.85 140.81 345.042C141.29 345.234 141.946 345.442 142.778 345.666C143.882 345.97 144.778 346.274 145.466 346.578C146.17 346.882 146.762 347.354 147.242 347.994C147.738 348.618 147.986 349.458 147.986 350.514C147.986 351.362 147.754 352.162 147.29 352.914C146.842 353.666 146.178 354.274 145.298 354.738C144.434 355.186 143.41 355.41 142.226 355.41ZM150.302 348.57C150.302 347.242 150.574 346.066 151.118 345.042C151.678 344.018 152.43 343.226 153.374 342.666C154.334 342.09 155.39 341.802 156.542 341.802C157.582 341.802 158.486 342.01 159.254 342.426C160.038 342.826 160.662 343.33 161.126 343.938V342.018H163.886V355.242H161.126V353.274C160.662 353.898 160.03 354.418 159.23 354.834C158.43 355.25 157.518 355.458 156.494 355.458C155.358 355.458 154.318 355.17 153.374 354.594C152.43 354.002 151.678 353.186 151.118 352.146C150.574 351.09 150.302 349.898 150.302 348.57ZM161.126 348.618C161.126 347.706 160.934 346.914 160.55 346.242C160.182 345.57 159.694 345.058 159.086 344.706C158.478 344.354 157.822 344.178 157.118 344.178C156.414 344.178 155.758 344.354 155.15 344.706C154.542 345.042 154.046 345.546 153.662 346.218C153.294 346.874 153.11 347.658 153.11 348.57C153.11 349.482 153.294 350.282 153.662 350.97C154.046 351.658 154.542 352.186 155.15 352.554C155.774 352.906 156.43 353.082 157.118 353.082C157.822 353.082 158.478 352.906 159.086 352.554C159.694 352.202 160.182 351.69 160.55 351.018C160.934 350.33 161.126 349.53 161.126 348.618ZM183.488 341.802C184.528 341.802 185.456 342.018 186.272 342.45C187.104 342.882 187.752 343.522 188.216 344.37C188.696 345.218 188.936 346.242 188.936 347.442V355.242H186.224V347.85C186.224 346.666 185.928 345.762 185.336 345.138C184.744 344.498 183.936 344.178 182.912 344.178C181.888 344.178 181.072 344.498 180.464 345.138C179.872 345.762 179.576 346.666 179.576 347.85V355.242H176.864V347.85C176.864 346.666 176.568 345.762 175.976 345.138C175.384 344.498 174.576 344.178 173.552 344.178C172.528 344.178 171.712 344.498 171.104 345.138C170.512 345.762 170.216 346.666 170.216 347.85V355.242H167.48V342.018H170.216V343.53C170.664 342.986 171.232 342.562 171.92 342.258C172.608 341.954 173.344 341.802 174.128 341.802C175.184 341.802 176.128 342.026 176.96 342.474C177.792 342.922 178.432 343.57 178.88 344.418C179.28 343.618 179.904 342.986 180.752 342.522C181.6 342.042 182.512 341.802 183.488 341.802ZM195.153 343.986C195.617 343.346 196.249 342.826 197.049 342.426C197.865 342.01 198.769 341.802 199.761 341.802C200.929 341.802 201.985 342.082 202.929 342.642C203.873 343.202 204.617 344.002 205.161 345.042C205.705 346.066 205.977 347.242 205.977 348.57C205.977 349.898 205.705 351.09 205.161 352.146C204.617 353.186 203.865 354.002 202.905 354.594C201.961 355.17 200.913 355.458 199.761 355.458C198.737 355.458 197.825 355.258 197.025 354.858C196.241 354.458 195.617 353.946 195.153 353.322V355.242H192.417V337.482H195.153V343.986ZM203.193 348.57C203.193 347.658 203.001 346.874 202.617 346.218C202.249 345.546 201.753 345.042 201.129 344.706C200.521 344.354 199.865 344.178 199.161 344.178C198.473 344.178 197.817 344.354 197.193 344.706C196.585 345.058 196.089 345.57 195.705 346.242C195.337 346.914 195.153 347.706 195.153 348.618C195.153 349.53 195.337 350.33 195.705 351.018C196.089 351.69 196.585 352.202 197.193 352.554C197.817 352.906 198.473 353.082 199.161 353.082C199.865 353.082 200.521 352.906 201.129 352.554C201.753 352.186 202.249 351.658 202.617 350.97C203.001 350.282 203.193 349.482 203.193 348.57ZM220.659 342.018V355.242H217.923V353.682C217.491 354.226 216.923 354.658 216.219 354.978C215.531 355.282 214.795 355.434 214.011 355.434C212.971 355.434 212.035 355.218 211.203 354.786C210.387 354.354 209.739 353.714 209.259 352.866C208.795 352.018 208.563 350.994 208.563 349.794V342.018H211.275V349.386C211.275 350.57 211.571 351.482 212.163 352.122C212.755 352.746 213.563 353.058 214.587 353.058C215.611 353.058 216.419 352.746 217.011 352.122C217.619 351.482 217.923 350.57 217.923 349.386V342.018H220.659ZM230.941 341.802C231.981 341.802 232.909 342.018 233.725 342.45C234.557 342.882 235.205 343.522 235.669 344.37C236.133 345.218 236.365 346.242 236.365 347.442V355.242H233.653V347.85C233.653 346.666 233.357 345.762 232.765 345.138C232.173 344.498 231.365 344.178 230.341 344.178C229.317 344.178 228.501 344.498 227.893 345.138C227.301 345.762 227.005 346.666 227.005 347.85V355.242H224.269V342.018H227.005V343.53C227.453 342.986 228.021 342.562 228.709 342.258C229.413 341.954 230.157 341.802 230.941 341.802ZM245.183 341.802C246.207 341.802 247.111 342.01 247.895 342.426C248.695 342.826 249.319 343.33 249.767 343.938V342.018H252.527V355.458C252.527 356.674 252.271 357.754 251.759 358.698C251.247 359.658 250.503 360.41 249.527 360.954C248.567 361.498 247.415 361.77 246.071 361.77C244.279 361.77 242.791 361.346 241.607 360.498C240.423 359.666 239.751 358.53 239.591 357.09H242.303C242.511 357.778 242.951 358.33 243.623 358.746C244.311 359.178 245.127 359.394 246.071 359.394C247.175 359.394 248.063 359.058 248.735 358.386C249.423 357.714 249.767 356.738 249.767 355.458V353.25C249.303 353.874 248.671 354.402 247.871 354.834C247.087 355.25 246.191 355.458 245.183 355.458C244.031 355.458 242.975 355.17 242.015 354.594C241.071 354.002 240.319 353.186 239.759 352.146C239.215 351.09 238.943 349.898 238.943 348.57C238.943 347.242 239.215 346.066 239.759 345.042C240.319 344.018 241.071 343.226 242.015 342.666C242.975 342.09 244.031 341.802 245.183 341.802ZM249.767 348.618C249.767 347.706 249.575 346.914 249.191 346.242C248.823 345.57 248.335 345.058 247.727 344.706C247.119 344.354 246.463 344.178 245.759 344.178C245.055 344.178 244.399 344.354 243.791 344.706C243.183 345.042 242.687 345.546 242.303 346.218C241.935 346.874 241.751 347.658 241.751 348.57C241.751 349.482 241.935 350.282 242.303 350.97C242.687 351.658 243.183 352.186 243.791 352.554C244.415 352.906 245.071 353.082 245.759 353.082C246.463 353.082 247.119 352.906 247.727 352.554C248.335 352.202 248.823 351.69 249.191 351.018C249.575 350.33 249.767 349.53 249.767 348.618ZM271.019 355.242L267.179 348.57H265.091V355.242H262.355V338.562H268.115C269.395 338.562 270.475 338.786 271.355 339.234C272.251 339.682 272.915 340.282 273.347 341.034C273.795 341.786 274.019 342.626 274.019 343.554C274.019 344.642 273.699 345.634 273.059 346.53C272.435 347.41 271.467 348.01 270.155 348.33L274.283 355.242H271.019ZM265.091 346.386H268.115C269.139 346.386 269.907 346.13 270.419 345.618C270.947 345.106 271.211 344.418 271.211 343.554C271.211 342.69 270.955 342.018 270.443 341.538C269.931 341.042 269.155 340.794 268.115 340.794H265.091V346.386ZM276.607 348.57C276.607 347.242 276.879 346.066 277.423 345.042C277.983 344.018 278.735 343.226 279.679 342.666C280.639 342.09 281.695 341.802 282.847 341.802C283.887 341.802 284.791 342.01 285.559 342.426C286.343 342.826 286.967 343.33 287.431 343.938V342.018H290.191V355.242H287.431V353.274C286.967 353.898 286.335 354.418 285.535 354.834C284.735 355.25 283.823 355.458 282.799 355.458C281.663 355.458 280.623 355.17 279.679 354.594C278.735 354.002 277.983 353.186 277.423 352.146C276.879 351.09 276.607 349.898 276.607 348.57ZM287.431 348.618C287.431 347.706 287.239 346.914 286.855 346.242C286.487 345.57 285.999 345.058 285.391 344.706C284.783 344.354 284.127 344.178 283.423 344.178C282.719 344.178 282.063 344.354 281.455 344.706C280.847 345.042 280.351 345.546 279.967 346.218C279.599 346.874 279.415 347.658 279.415 348.57C279.415 349.482 279.599 350.282 279.967 350.97C280.351 351.658 280.847 352.186 281.455 352.554C282.079 352.906 282.735 353.082 283.423 353.082C284.127 353.082 284.783 352.906 285.391 352.554C285.999 352.202 286.487 351.69 286.855 351.018C287.239 350.33 287.431 349.53 287.431 348.618ZM298.584 355.458C297.544 355.458 296.608 355.274 295.776 354.906C294.96 354.522 294.312 354.01 293.832 353.37C293.352 352.714 293.096 351.986 293.064 351.186H295.896C295.944 351.746 296.208 352.218 296.688 352.602C297.184 352.97 297.8 353.154 298.536 353.154C299.304 353.154 299.896 353.01 300.312 352.722C300.744 352.418 300.96 352.034 300.96 351.57C300.96 351.074 300.72 350.706 300.24 350.466C299.776 350.226 299.032 349.962 298.008 349.674C297.016 349.402 296.208 349.138 295.584 348.882C294.96 348.626 294.416 348.234 293.952 347.706C293.504 347.178 293.28 346.482 293.28 345.618C293.28 344.914 293.488 344.274 293.904 343.698C294.32 343.106 294.912 342.642 295.68 342.306C296.464 341.97 297.36 341.802 298.368 341.802C299.872 341.802 301.08 342.186 301.992 342.954C302.92 343.706 303.416 344.738 303.48 346.05H300.744C300.696 345.458 300.456 344.986 300.024 344.634C299.592 344.282 299.008 344.106 298.272 344.106C297.552 344.106 297 344.242 296.616 344.514C296.232 344.786 296.04 345.146 296.04 345.594C296.04 345.946 296.168 346.242 296.424 346.482C296.68 346.722 296.992 346.914 297.36 347.058C297.728 347.186 298.272 347.354 298.992 347.562C299.952 347.818 300.736 348.082 301.344 348.354C301.968 348.61 302.504 348.994 302.952 349.506C303.4 350.018 303.632 350.698 303.648 351.546C303.648 352.298 303.44 352.97 303.024 353.562C302.608 354.154 302.016 354.618 301.248 354.954C300.496 355.29 299.608 355.458 298.584 355.458ZM305.693 348.57C305.693 347.242 305.965 346.066 306.509 345.042C307.069 344.018 307.821 343.226 308.765 342.666C309.725 342.09 310.781 341.802 311.933 341.802C312.973 341.802 313.877 342.01 314.645 342.426C315.429 342.826 316.053 343.33 316.517 343.938V342.018H319.277V355.242H316.517V353.274C316.053 353.898 315.421 354.418 314.621 354.834C313.821 355.25 312.909 355.458 311.885 355.458C310.749 355.458 309.709 355.17 308.765 354.594C307.821 354.002 307.069 353.186 306.509 352.146C305.965 351.09 305.693 349.898 305.693 348.57ZM316.517 348.618C316.517 347.706 316.325 346.914 315.941 346.242C315.573 345.57 315.085 345.058 314.477 344.706C313.869 344.354 313.213 344.178 312.509 344.178C311.805 344.178 311.149 344.354 310.541 344.706C309.933 345.042 309.437 345.546 309.053 346.218C308.685 346.874 308.501 347.658 308.501 348.57C308.501 349.482 308.685 350.282 309.053 350.97C309.437 351.658 309.933 352.186 310.541 352.554C311.165 352.906 311.821 353.082 312.509 353.082C313.213 353.082 313.869 352.906 314.477 352.554C315.085 352.202 315.573 351.69 315.941 351.018C316.325 350.33 316.517 349.53 316.517 348.618Z" fill="white"/>
<g filter="url(#filter1_d)">
<rect x="40" y="40" width="360" height="357" rx="10" fill="#F43B31"/>
</g>
<g filter="url(#filter2_d)">
<rect x="460" y="40" width="360" height="357" rx="10" fill="white"/>
</g>
<g clip-path="url(#clip1)">
<path d="M635.733 182.998V210.582C625.937 210.485 616.194 209.138 606.741 206.571C599.167 204.331 594.197 201.323 593.237 197.995V197.931C593.118 197.567 593.06 197.184 593.066 196.801C593.066 193.089 597.93 189.739 605.866 187.286C606.143 187.179 606.442 187.094 606.741 187.009C616.197 184.453 625.938 183.105 635.733 182.998Z" fill="#F7A4A4"/>
<path d="M686.933 196.801C686.939 197.184 686.881 197.567 686.762 197.931V197.995C685.802 201.345 680.81 204.374 673.194 206.614C663.756 209.143 654.037 210.477 644.266 210.582V182.998C652.152 183.139 660.007 184.01 667.733 185.601C668.223 185.707 668.693 185.814 669.162 185.942C670.591 186.262 671.935 186.625 673.194 186.987C673.514 187.073 673.834 187.179 674.133 187.265C682.069 189.739 686.933 193.11 686.933 196.801Z" fill="#F7A4A4"/>
<path d="M686.763 197.996C685.047 216.061 669.88 229.861 651.733 229.868H628.267C610.12 229.861 594.953 216.061 593.237 197.996C594.197 201.324 599.168 204.332 606.741 206.572C616.195 209.138 625.938 210.486 635.733 210.582C637.141 210.646 638.549 210.668 640 210.668C641.451 210.668 642.859 210.646 644.267 210.582C654.037 210.477 663.756 209.144 673.195 206.614C680.811 204.374 685.803 201.345 686.763 197.996Z" fill="#FCE8E8"/>
<path d="M679.142 204.449C674.787 219.503 661.005 229.866 645.333 229.868H651.733C669.879 229.861 685.047 216.061 686.762 197.996C686.08 200.364 683.355 202.561 679.142 204.449Z" fill="#FCCACA"/>
<path d="M650.666 125.332V131.732C650.671 132.291 650.621 132.848 650.517 133.396C649.706 138.577 645.243 142.396 639.999 142.396C634.756 142.396 630.293 138.577 629.482 133.396C629.378 132.848 629.328 132.291 629.333 131.732V125.332H650.666Z" fill="#F7A4A4"/>
<path d="M657.877 109.142L650.666 125.334H629.333L622.122 109.142C621.832 108.479 621.896 107.715 622.292 107.109C622.687 106.503 623.361 106.136 624.085 106.134H655.914C656.638 106.136 657.312 106.503 657.707 107.109C658.103 107.715 658.166 108.479 657.877 109.142Z" fill="#FCE8E8"/>
<path d="M655.914 106.134H649.514C650.238 106.136 650.912 106.503 651.307 107.109C651.702 107.715 651.766 108.479 651.477 109.142L644.266 125.334H650.666L657.877 109.142C658.166 108.479 658.102 107.715 657.707 107.109C657.312 106.503 656.638 106.136 655.914 106.134Z" fill="#FCCACA"/>
<path d="M664.149 141.717C660.328 137.903 655.656 135.051 650.517 133.397C650.48 133.627 650.43 133.855 650.368 134.079C650.341 134.284 650.291 134.484 650.218 134.677C650.112 135.094 649.969 135.5 649.792 135.893C648.133 139.833 644.275 142.397 640 142.399C638.896 142.408 637.799 142.228 636.757 141.866C634.649 141.211 632.804 139.904 631.488 138.133C631.193 137.769 630.935 137.375 630.72 136.959C630.549 136.639 630.378 136.298 630.229 135.957C630.122 135.722 630.037 135.487 629.952 135.253C629.74 134.649 629.583 134.028 629.482 133.397C628.629 133.674 627.776 133.994 626.965 134.335C626.602 134.474 626.246 134.631 625.898 134.805C625.194 135.125 624.49 135.466 623.808 135.829C612.748 141.769 605.853 153.312 605.866 165.866L605.866 187.285C606.144 187.178 606.442 187.093 606.741 187.007C616.197 184.452 625.938 183.104 635.733 182.997V182.933C635.74 180.579 637.646 178.673 640 178.666C642.349 178.683 644.249 180.584 644.266 182.933V182.997C652.152 183.138 660.008 184.009 667.733 185.599C668.224 185.706 668.693 185.813 669.162 185.941C670.592 186.261 671.936 186.623 673.194 186.986C673.514 187.071 673.834 187.178 674.133 187.263V165.866C674.143 156.81 670.551 148.122 664.149 141.717ZM659.2 161.599C659.2 162.778 658.244 163.733 657.066 163.733H622.933C621.755 163.733 620.8 162.778 620.8 161.599V155.199C620.8 154.021 621.755 153.066 622.933 153.066H657.066C658.244 153.066 659.2 154.021 659.2 155.199V161.599Z" fill="#FCE8E8"/>
<path d="M633.6 142.399C634.687 142.389 635.767 142.211 636.8 141.87C632.951 140.662 630.117 137.38 629.482 133.397C627.521 134.036 625.622 134.853 623.81 135.839C625.45 139.802 629.311 142.389 633.6 142.399Z" fill="#FCCACA"/>
<path d="M664.149 141.717C660.328 137.903 655.655 135.051 650.517 133.397C650.373 134.248 650.125 135.078 649.776 135.867C652.701 137.424 655.386 139.394 657.749 141.717C664.151 148.122 667.743 156.81 667.733 165.866V185.616C669.666 186.043 671.502 186.489 673.194 186.986C673.514 187.071 673.834 187.178 674.133 187.263L674.133 165.866C674.143 156.81 670.551 148.122 664.149 141.717Z" fill="#FCCACA"/>
<path d="M657.066 153.067H622.933C621.754 153.067 620.799 154.022 620.799 155.2V161.6C620.799 162.778 621.754 163.733 622.933 163.733H657.066C658.244 163.733 659.199 162.778 659.199 161.6V155.2C659.199 154.022 658.244 153.067 657.066 153.067Z" fill="#FCE8E8"/>
<path d="M657.066 153.067H650.666C651.844 153.067 652.8 154.022 652.8 155.2V161.6C652.8 162.778 651.844 163.733 650.666 163.733H657.066C658.244 163.733 659.2 162.778 659.2 161.6V155.2C659.2 154.022 658.244 153.067 657.066 153.067Z" fill="#FCCACA"/>
<path d="M644.266 182.934V210.582C642.858 210.646 641.45 210.668 639.999 210.668C638.549 210.668 637.141 210.646 635.733 210.582V182.934C635.74 180.581 637.646 178.675 639.999 178.668C642.349 178.685 644.249 180.585 644.266 182.934Z" fill="#FCE8E8"/>
<path d="M628.266 229.868H634.666C616.52 229.861 601.352 216.061 599.637 197.996V197.932C599.518 197.567 599.46 197.185 599.466 196.801C599.466 193.089 604.33 189.74 612.266 187.286V165.868C612.259 153.324 619.149 141.793 630.199 135.856C630.182 135.805 630.158 135.739 630.114 135.628C630.141 135.7 630.175 135.777 630.207 135.852C632.021 134.864 633.92 134.043 635.882 133.398C635.627 130.718 635.577 128.022 635.733 125.334L628.522 109.142C628.232 108.479 628.296 107.715 628.692 107.109C629.087 106.503 629.761 106.136 630.485 106.134H624.085C623.361 106.136 622.687 106.503 622.292 107.109C621.896 107.715 621.832 108.479 622.122 109.142L629.333 125.334C629.177 128.022 629.227 130.718 629.482 133.398C615.399 137.952 605.86 151.067 605.866 165.868V187.286C597.93 189.74 593.066 193.089 593.066 196.801C593.06 197.185 593.118 197.567 593.237 197.932V197.996C594.952 216.061 610.12 229.861 628.266 229.868Z" fill="white"/>
<path d="M608.181 148.482L611.923 150.53C610.649 152.874 609.665 155.364 608.991 157.945C608.365 160.54 608.032 163.197 607.999 165.866H603.733C603.766 162.843 604.143 159.832 604.857 156.894C605.618 153.965 606.735 151.14 608.181 148.482Z" fill="white"/>
<path d="M689.066 196.8C689.066 192.397 684.646 188.597 676.266 185.732V165.867C676.295 150.766 666.932 137.239 652.789 131.947C652.789 131.878 652.799 131.81 652.799 131.733V125.786L659.816 109.999C660.402 108.679 660.281 107.152 659.494 105.941C658.707 104.73 657.361 104 655.916 104H624.083C622.638 103.999 621.291 104.73 620.504 105.942C619.716 107.153 619.596 108.681 620.183 110.001L627.199 125.786V131.733C627.199 131.817 627.199 131.895 627.212 131.979C619.107 135.04 612.359 140.892 608.181 148.482C607.888 148.986 607.82 149.591 607.994 150.147C608.167 150.704 608.566 151.163 609.094 151.411C610.123 151.894 611.35 151.512 611.923 150.53C615.489 144.056 621.177 139.008 628.029 136.237C629.895 141.228 634.662 144.538 639.99 144.542C645.319 144.546 650.091 141.243 651.963 136.254C664.104 141.055 672.058 152.811 671.999 165.867V184.45C663.503 182.342 654.803 181.162 646.052 180.93C645.755 179.989 645.235 179.133 644.535 178.436C643.345 177.212 641.707 176.525 639.999 176.533C637.249 176.543 634.815 178.316 633.962 180.93C625.205 181.157 616.5 182.339 607.999 184.454V165.867C607.999 164.688 607.044 163.733 605.866 163.733C604.688 163.733 603.733 164.688 603.733 165.867V185.732C595.353 188.599 590.933 192.399 590.933 196.8C590.938 197.331 591.01 197.859 591.146 198.372C592.953 217.498 609.055 232.085 628.266 232H651.733C670.851 232.068 686.897 217.608 688.812 198.586C688.98 198.005 689.066 197.404 689.066 196.8ZM655.916 108.267L649.279 123.2H630.719L624.083 108.267H655.916ZM639.999 140.267C635.287 140.267 631.466 136.446 631.466 131.733V127.467H648.533V131.733C648.533 136.446 644.712 140.267 639.999 140.267ZM684.799 196.8C684.799 198.178 683.15 200.201 678.924 202.21L648.723 194.667L671.999 188.87C672.194 188.924 672.403 188.973 672.593 189.028C681.599 191.68 684.799 194.867 684.799 196.8ZM646.399 185.212C651.832 185.41 657.246 185.944 662.613 186.81L646.399 190.85V185.212ZM646.399 198.485L671.701 204.8C663.427 206.934 654.94 208.134 646.399 208.375V198.485ZM639.999 180.8C640.574 180.808 641.122 181.044 641.522 181.456C641.922 181.868 642.142 182.423 642.133 182.997V208.495C640.711 208.521 639.288 208.521 637.866 208.495V182.933C637.866 181.755 638.821 180.8 639.999 180.8ZM633.599 190.891L617.282 186.825C622.682 185.948 628.132 185.409 633.599 185.212V190.891ZM633.599 208.384C625.028 208.147 616.512 206.938 608.213 204.781L633.599 198.443V208.384ZM607.347 189.054C607.537 188.996 607.748 188.947 607.94 188.892L631.11 194.667L600.998 202.176C596.831 200.201 595.199 198.223 595.199 196.8C595.199 194.788 598.399 191.701 607.347 189.054ZM651.733 227.733H628.266C613.858 227.801 601.086 218.477 596.759 204.734C599.709 206.418 602.859 207.725 606.135 208.625C615.763 211.229 625.682 212.606 635.656 212.723C637.09 212.774 638.523 212.8 639.999 212.8C641.476 212.8 642.909 212.774 644.317 212.723C654.275 212.602 664.178 211.235 673.796 208.653C677.083 207.753 680.245 206.445 683.208 204.759C678.881 218.485 666.124 227.796 651.733 227.733Z" fill="#FF4242"/>
<path d="M628.266 219.2C621.758 219.214 615.515 216.623 610.928 212.007C610.095 211.173 608.744 211.173 607.911 212.006C607.077 212.839 607.077 214.19 607.91 215.023C613.295 220.443 620.625 223.483 628.266 223.467C629.444 223.467 630.399 222.512 630.399 221.334C630.399 220.155 629.444 219.2 628.266 219.2Z" fill="#FF4242"/>
<path d="M606.975 159.538C605.797 159.545 604.837 158.595 604.83 157.417C604.824 156.238 605.774 155.278 606.952 155.272H606.975C608.154 155.272 609.109 156.227 609.109 157.405C609.109 158.583 608.154 159.538 606.975 159.538Z" fill="#FF4242"/>
<path d="M661.333 155.2C661.333 152.844 659.423 150.933 657.066 150.933H622.933C620.576 150.933 618.666 152.844 618.666 155.2V161.6C618.666 163.956 620.576 165.867 622.933 165.867H657.066C659.423 165.867 661.333 163.956 661.333 161.6V155.2ZM622.933 161.6V155.2H657.066V161.6H622.933Z" fill="#FF4242"/>
<path d="M650.666 174.401C651.844 174.401 652.799 173.446 652.799 172.268C652.799 171.09 651.844 170.134 650.666 170.134C649.488 170.134 648.533 171.09 648.533 172.268C648.533 173.446 649.488 174.401 650.666 174.401Z" fill="#FF4242"/>
<path d="M659.2 174.401C660.378 174.401 661.333 173.446 661.333 172.268C661.333 171.09 660.378 170.134 659.2 170.134C658.022 170.134 657.066 171.09 657.066 172.268C657.066 173.446 658.022 174.401 659.2 174.401Z" fill="#FF4242"/>
<path d="M620.8 174.401C621.978 174.401 622.933 173.446 622.933 172.268C622.933 171.09 621.978 170.134 620.8 170.134C619.621 170.134 618.666 171.09 618.666 172.268C618.666 173.446 619.621 174.401 620.8 174.401Z" fill="#FF4242"/>
<path d="M629.333 174.401C630.511 174.401 631.466 173.446 631.466 172.268C631.466 171.09 630.511 170.134 629.333 170.134C628.155 170.134 627.199 171.09 627.199 172.268C627.199 173.446 628.155 174.401 629.333 174.401Z" fill="#FF4242"/>
</g>
<path d="M555.369 350.272C555.369 344.176 546.537 346.528 546.537 342.76C546.537 341.152 547.761 340.384 549.345 340.432C551.073 340.48 552.057 341.512 552.153 342.64H555.177C554.937 339.784 552.681 338.104 549.489 338.104C546.081 338.104 543.753 339.928 543.753 342.856C543.753 349 552.609 346.384 552.609 350.416C552.609 351.832 551.529 352.864 549.609 352.864C547.713 352.864 546.753 351.76 546.633 350.392H543.705C543.705 353.344 546.273 355.168 549.609 355.168C553.329 355.168 555.369 352.768 555.369 350.272ZM557.685 348.328C557.685 352.408 560.445 355.216 563.877 355.216C566.085 355.216 567.669 354.16 568.509 353.032V355H571.269V341.776H568.509V343.696C567.693 342.616 566.157 341.56 563.925 341.56C560.445 341.56 557.685 344.248 557.685 348.328ZM568.509 348.376C568.509 351.232 566.565 352.84 564.501 352.84C562.461 352.84 560.493 351.184 560.493 348.328C560.493 345.472 562.461 343.936 564.501 343.936C566.565 343.936 568.509 345.544 568.509 348.376ZM593.607 355H596.319V347.2C596.319 343.504 593.967 341.56 590.871 341.56C588.951 341.56 587.079 342.568 586.263 344.176C585.351 342.448 583.599 341.56 581.511 341.56C579.927 341.56 578.487 342.208 577.599 343.288V341.776H574.863V355H577.599V347.608C577.599 345.184 578.919 343.936 580.935 343.936C582.927 343.936 584.247 345.184 584.247 347.608V355H586.959V347.608C586.959 345.184 588.279 343.936 590.295 343.936C592.287 343.936 593.607 345.184 593.607 347.608V355ZM602.536 343.744V337.24H599.8V355H602.536V353.08C603.4 354.232 604.96 355.216 607.144 355.216C610.624 355.216 613.36 352.408 613.36 348.328C613.36 344.248 610.648 341.56 607.144 341.56C605.056 341.56 603.4 342.544 602.536 343.744ZM610.576 348.328C610.576 351.184 608.608 352.84 606.544 352.84C604.504 352.84 602.536 351.232 602.536 348.376C602.536 345.544 604.504 343.936 606.544 343.936C608.608 343.936 610.576 345.472 610.576 348.328ZM628.042 341.776H625.306V349.144C625.306 351.568 623.986 352.816 621.97 352.816C619.978 352.816 618.658 351.568 618.658 349.144V341.776H615.946V349.552C615.946 353.248 618.298 355.192 621.394 355.192C622.954 355.192 624.442 354.544 625.306 353.416V355H628.042V341.776ZM641.036 355H643.748V347.2C643.748 343.504 641.42 341.56 638.324 341.56C636.74 341.56 635.276 342.208 634.388 343.288V341.776H631.652V355H634.388V347.608C634.388 345.184 635.708 343.936 637.724 343.936C639.716 343.936 641.036 345.184 641.036 347.608V355ZM646.326 348.328C646.326 352.408 649.086 355.216 652.566 355.216C654.726 355.216 656.31 354.136 657.15 353.008V355.216C657.15 357.856 655.566 359.152 653.454 359.152C651.558 359.152 650.094 358.216 649.686 356.848H646.974C647.31 359.776 649.926 361.528 653.454 361.528C657.582 361.528 659.91 358.816 659.91 355.216V341.776H657.15V343.696C656.334 342.568 654.726 341.56 652.566 341.56C649.086 341.56 646.326 344.248 646.326 348.328ZM657.15 348.376C657.15 351.232 655.206 352.84 653.142 352.84C651.102 352.84 649.134 351.184 649.134 348.328C649.134 345.472 651.102 343.936 653.142 343.936C655.206 343.936 657.15 345.544 657.15 348.376ZM678.93 355H682.506L675.138 346.672L682.386 338.32H678.954L672.474 345.928V338.32H669.738V355H672.474V347.536L678.93 355ZM684.013 348.328C684.013 352.408 686.773 355.216 690.205 355.216C692.413 355.216 693.997 354.16 694.837 353.032V355H697.597V341.776H694.837V343.696C694.021 342.616 692.485 341.56 690.253 341.56C686.773 341.56 684.013 344.248 684.013 348.328ZM694.837 348.376C694.837 351.232 692.893 352.84 690.829 352.84C688.789 352.84 686.821 351.184 686.821 348.328C686.821 345.472 688.789 343.936 690.829 343.936C692.893 343.936 694.837 345.544 694.837 348.376ZM703.927 348.04C703.927 345.232 705.175 344.392 707.191 344.392H707.887V341.56C706.015 341.56 704.695 342.376 703.927 343.696V341.776H701.191V355H703.927V348.04ZM720.266 351.304C720.122 346.528 712.658 348.016 712.658 345.352C712.658 344.464 713.426 343.864 714.89 343.864C716.378 343.864 717.266 344.656 717.362 345.808H720.098C719.954 343.168 717.986 341.56 714.986 341.56C711.866 341.56 709.898 343.264 709.898 345.376C709.898 350.224 717.578 348.736 717.578 351.328C717.578 352.24 716.738 352.912 715.154 352.912C713.642 352.912 712.61 352.024 712.514 350.944H709.682C709.802 353.344 712.034 355.216 715.202 355.216C718.322 355.216 720.266 353.536 720.266 351.304ZM722.31 348.328C722.31 352.408 725.07 355.216 728.502 355.216C730.71 355.216 732.294 354.16 733.134 353.032V355H735.894V341.776H733.134V343.696C732.318 342.616 730.782 341.56 728.55 341.56C725.07 341.56 722.31 344.248 722.31 348.328ZM733.134 348.376C733.134 351.232 731.19 352.84 729.126 352.84C727.086 352.84 725.118 351.184 725.118 348.328C725.118 345.472 727.086 343.936 729.126 343.936C731.19 343.936 733.134 345.544 733.134 348.376Z" fill="#F43B31"/>
<path d="M134.226 355.168C133.106 355.168 132.098 354.976 131.202 354.592C130.306 354.192 129.602 353.632 129.09 352.912C128.578 352.192 128.322 351.352 128.322 350.392H131.25C131.314 351.112 131.594 351.704 132.09 352.168C132.602 352.632 133.314 352.864 134.226 352.864C135.17 352.864 135.906 352.64 136.434 352.192C136.962 351.728 137.226 351.136 137.226 350.416C137.226 349.856 137.058 349.4 136.722 349.048C136.402 348.696 135.994 348.424 135.498 348.232C135.018 348.04 134.346 347.832 133.482 347.608C132.394 347.32 131.506 347.032 130.818 346.744C130.146 346.44 129.57 345.976 129.09 345.352C128.61 344.728 128.37 343.896 128.37 342.856C128.37 341.896 128.61 341.056 129.09 340.336C129.57 339.616 130.242 339.064 131.106 338.68C131.97 338.296 132.97 338.104 134.106 338.104C135.722 338.104 137.042 338.512 138.066 339.328C139.106 340.128 139.682 341.232 139.794 342.64H136.77C136.722 342.032 136.434 341.512 135.906 341.08C135.378 340.648 134.682 340.432 133.818 340.432C133.034 340.432 132.394 340.632 131.898 341.032C131.402 341.432 131.154 342.008 131.154 342.76C131.154 343.272 131.306 343.696 131.61 344.032C131.93 344.352 132.33 344.608 132.81 344.8C133.29 344.992 133.946 345.2 134.778 345.424C135.882 345.728 136.778 346.032 137.466 346.336C138.17 346.64 138.762 347.112 139.242 347.752C139.738 348.376 139.986 349.216 139.986 350.272C139.986 351.12 139.754 351.92 139.29 352.672C138.842 353.424 138.178 354.032 137.298 354.496C136.434 354.944 135.41 355.168 134.226 355.168ZM142.302 348.328C142.302 347 142.574 345.824 143.118 344.8C143.678 343.776 144.43 342.984 145.374 342.424C146.334 341.848 147.39 341.56 148.542 341.56C149.582 341.56 150.486 341.768 151.254 342.184C152.038 342.584 152.662 343.088 153.126 343.696V341.776H155.886V355H153.126V353.032C152.662 353.656 152.03 354.176 151.23 354.592C150.43 355.008 149.518 355.216 148.494 355.216C147.358 355.216 146.318 354.928 145.374 354.352C144.43 353.76 143.678 352.944 143.118 351.904C142.574 350.848 142.302 349.656 142.302 348.328ZM153.126 348.376C153.126 347.464 152.934 346.672 152.55 346C152.182 345.328 151.694 344.816 151.086 344.464C150.478 344.112 149.822 343.936 149.118 343.936C148.414 343.936 147.758 344.112 147.15 344.464C146.542 344.8 146.046 345.304 145.662 345.976C145.294 346.632 145.11 347.416 145.11 348.328C145.11 349.24 145.294 350.04 145.662 350.728C146.046 351.416 146.542 351.944 147.15 352.312C147.774 352.664 148.43 352.84 149.118 352.84C149.822 352.84 150.478 352.664 151.086 352.312C151.694 351.96 152.182 351.448 152.55 350.776C152.934 350.088 153.126 349.288 153.126 348.376ZM175.488 341.56C176.528 341.56 177.456 341.776 178.272 342.208C179.104 342.64 179.752 343.28 180.216 344.128C180.696 344.976 180.936 346 180.936 347.2V355H178.224V347.608C178.224 346.424 177.928 345.52 177.336 344.896C176.744 344.256 175.936 343.936 174.912 343.936C173.888 343.936 173.072 344.256 172.464 344.896C171.872 345.52 171.576 346.424 171.576 347.608V355H168.864V347.608C168.864 346.424 168.568 345.52 167.976 344.896C167.384 344.256 166.576 343.936 165.552 343.936C164.528 343.936 163.712 344.256 163.104 344.896C162.512 345.52 162.216 346.424 162.216 347.608V355H159.48V341.776H162.216V343.288C162.664 342.744 163.232 342.32 163.92 342.016C164.608 341.712 165.344 341.56 166.128 341.56C167.184 341.56 168.128 341.784 168.96 342.232C169.792 342.68 170.432 343.328 170.88 344.176C171.28 343.376 171.904 342.744 172.752 342.28C173.6 341.8 174.512 341.56 175.488 341.56ZM187.153 343.744C187.617 343.104 188.249 342.584 189.049 342.184C189.865 341.768 190.769 341.56 191.761 341.56C192.929 341.56 193.985 341.84 194.929 342.4C195.873 342.96 196.617 343.76 197.161 344.8C197.705 345.824 197.977 347 197.977 348.328C197.977 349.656 197.705 350.848 197.161 351.904C196.617 352.944 195.865 353.76 194.905 354.352C193.961 354.928 192.913 355.216 191.761 355.216C190.737 355.216 189.825 355.016 189.025 354.616C188.241 354.216 187.617 353.704 187.153 353.08V355H184.417V337.24H187.153V343.744ZM195.193 348.328C195.193 347.416 195.001 346.632 194.617 345.976C194.249 345.304 193.753 344.8 193.129 344.464C192.521 344.112 191.865 343.936 191.161 343.936C190.473 343.936 189.817 344.112 189.193 344.464C188.585 344.816 188.089 345.328 187.705 346C187.337 346.672 187.153 347.464 187.153 348.376C187.153 349.288 187.337 350.088 187.705 350.776C188.089 351.448 188.585 351.96 189.193 352.312C189.817 352.664 190.473 352.84 191.161 352.84C191.865 352.84 192.521 352.664 193.129 352.312C193.753 351.944 194.249 351.416 194.617 350.728C195.001 350.04 195.193 349.24 195.193 348.328ZM212.659 341.776V355H209.923V353.44C209.491 353.984 208.923 354.416 208.219 354.736C207.531 355.04 206.795 355.192 206.011 355.192C204.971 355.192 204.035 354.976 203.203 354.544C202.387 354.112 201.739 353.472 201.259 352.624C200.795 351.776 200.563 350.752 200.563 349.552V341.776H203.275V349.144C203.275 350.328 203.571 351.24 204.163 351.88C204.755 352.504 205.563 352.816 206.587 352.816C207.611 352.816 208.419 352.504 209.011 351.88C209.619 351.24 209.923 350.328 209.923 349.144V341.776H212.659ZM222.941 341.56C223.981 341.56 224.909 341.776 225.725 342.208C226.557 342.64 227.205 343.28 227.669 344.128C228.133 344.976 228.365 346 228.365 347.2V355H225.653V347.608C225.653 346.424 225.357 345.52 224.765 344.896C224.173 344.256 223.365 343.936 222.341 343.936C221.317 343.936 220.501 344.256 219.893 344.896C219.301 345.52 219.005 346.424 219.005 347.608V355H216.269V341.776H219.005V343.288C219.453 342.744 220.021 342.32 220.709 342.016C221.413 341.712 222.157 341.56 222.941 341.56ZM237.183 341.56C238.207 341.56 239.111 341.768 239.895 342.184C240.695 342.584 241.319 343.088 241.767 343.696V341.776H244.527V355.216C244.527 356.432 244.271 357.512 243.759 358.456C243.247 359.416 242.503 360.168 241.527 360.712C240.567 361.256 239.415 361.528 238.071 361.528C236.279 361.528 234.791 361.104 233.607 360.256C232.423 359.424 231.751 358.288 231.591 356.848H234.303C234.511 357.536 234.951 358.088 235.623 358.504C236.311 358.936 237.127 359.152 238.071 359.152C239.175 359.152 240.063 358.816 240.735 358.144C241.423 357.472 241.767 356.496 241.767 355.216V353.008C241.303 353.632 240.671 354.16 239.871 354.592C239.087 355.008 238.191 355.216 237.183 355.216C236.031 355.216 234.975 354.928 234.015 354.352C233.071 353.76 232.319 352.944 231.759 351.904C231.215 350.848 230.943 349.656 230.943 348.328C230.943 347 231.215 345.824 231.759 344.8C232.319 343.776 233.071 342.984 234.015 342.424C234.975 341.848 236.031 341.56 237.183 341.56ZM241.767 348.376C241.767 347.464 241.575 346.672 241.191 346C240.823 345.328 240.335 344.816 239.727 344.464C239.119 344.112 238.463 343.936 237.759 343.936C237.055 343.936 236.399 344.112 235.791 344.464C235.183 344.8 234.687 345.304 234.303 345.976C233.935 346.632 233.751 347.416 233.751 348.328C233.751 349.24 233.935 350.04 234.303 350.728C234.687 351.416 235.183 351.944 235.791 352.312C236.415 352.664 237.071 352.84 237.759 352.84C238.463 352.84 239.119 352.664 239.727 352.312C240.335 351.96 240.823 351.448 241.191 350.776C241.575 350.088 241.767 349.288 241.767 348.376ZM263.019 355L259.179 348.328H257.091V355H254.355V338.32H260.115C261.395 338.32 262.475 338.544 263.355 338.992C264.251 339.44 264.915 340.04 265.347 340.792C265.795 341.544 266.019 342.384 266.019 343.312C266.019 344.4 265.699 345.392 265.059 346.288C264.435 347.168 263.467 347.768 262.155 348.088L266.283 355H263.019ZM257.091 346.144H260.115C261.139 346.144 261.907 345.888 262.419 345.376C262.947 344.864 263.211 344.176 263.211 343.312C263.211 342.448 262.955 341.776 262.443 341.296C261.931 340.8 261.155 340.552 260.115 340.552H257.091V346.144ZM268.607 348.328C268.607 347 268.879 345.824 269.423 344.8C269.983 343.776 270.735 342.984 271.679 342.424C272.639 341.848 273.695 341.56 274.847 341.56C275.887 341.56 276.791 341.768 277.559 342.184C278.343 342.584 278.967 343.088 279.431 343.696V341.776H282.191V355H279.431V353.032C278.967 353.656 278.335 354.176 277.535 354.592C276.735 355.008 275.823 355.216 274.799 355.216C273.663 355.216 272.623 354.928 271.679 354.352C270.735 353.76 269.983 352.944 269.423 351.904C268.879 350.848 268.607 349.656 268.607 348.328ZM279.431 348.376C279.431 347.464 279.239 346.672 278.855 346C278.487 345.328 277.999 344.816 277.391 344.464C276.783 344.112 276.127 343.936 275.423 343.936C274.719 343.936 274.063 344.112 273.455 344.464C272.847 344.8 272.351 345.304 271.967 345.976C271.599 346.632 271.415 347.416 271.415 348.328C271.415 349.24 271.599 350.04 271.967 350.728C272.351 351.416 272.847 351.944 273.455 352.312C274.079 352.664 274.735 352.84 275.423 352.84C276.127 352.84 276.783 352.664 277.391 352.312C277.999 351.96 278.487 351.448 278.855 350.776C279.239 350.088 279.431 349.288 279.431 348.376ZM290.584 355.216C289.544 355.216 288.608 355.032 287.776 354.664C286.96 354.28 286.312 353.768 285.832 353.128C285.352 352.472 285.096 351.744 285.064 350.944H287.896C287.944 351.504 288.208 351.976 288.688 352.36C289.184 352.728 289.8 352.912 290.536 352.912C291.304 352.912 291.896 352.768 292.312 352.48C292.744 352.176 292.96 351.792 292.96 351.328C292.96 350.832 292.72 350.464 292.24 350.224C291.776 349.984 291.032 349.72 290.008 349.432C289.016 349.16 288.208 348.896 287.584 348.64C286.96 348.384 286.416 347.992 285.952 347.464C285.504 346.936 285.28 346.24 285.28 345.376C285.28 344.672 285.488 344.032 285.904 343.456C286.32 342.864 286.912 342.4 287.68 342.064C288.464 341.728 289.36 341.56 290.368 341.56C291.872 341.56 293.08 341.944 293.992 342.712C294.92 343.464 295.416 344.496 295.48 345.808H292.744C292.696 345.216 292.456 344.744 292.024 344.392C291.592 344.04 291.008 343.864 290.272 343.864C289.552 343.864 289 344 288.616 344.272C288.232 344.544 288.04 344.904 288.04 345.352C288.04 345.704 288.168 346 288.424 346.24C288.68 346.48 288.992 346.672 289.36 346.816C289.728 346.944 290.272 347.112 290.992 347.32C291.952 347.576 292.736 347.84 293.344 348.112C293.968 348.368 294.504 348.752 294.952 349.264C295.4 349.776 295.632 350.456 295.648 351.304C295.648 352.056 295.44 352.728 295.024 353.32C294.608 353.912 294.016 354.376 293.248 354.712C292.496 355.048 291.608 355.216 290.584 355.216ZM297.693 348.328C297.693 347 297.965 345.824 298.509 344.8C299.069 343.776 299.821 342.984 300.765 342.424C301.725 341.848 302.781 341.56 303.933 341.56C304.973 341.56 305.877 341.768 306.645 342.184C307.429 342.584 308.053 343.088 308.517 343.696V341.776H311.277V355H308.517V353.032C308.053 353.656 307.421 354.176 306.621 354.592C305.821 355.008 304.909 355.216 303.885 355.216C302.749 355.216 301.709 354.928 300.765 354.352C299.821 353.76 299.069 352.944 298.509 351.904C297.965 350.848 297.693 349.656 297.693 348.328ZM308.517 348.376C308.517 347.464 308.325 346.672 307.941 346C307.573 345.328 307.085 344.816 306.477 344.464C305.869 344.112 305.213 343.936 304.509 343.936C303.805 343.936 303.149 344.112 302.541 344.464C301.933 344.8 301.437 345.304 301.053 345.976C300.685 346.632 300.501 347.416 300.501 348.328C300.501 349.24 300.685 350.04 301.053 350.728C301.437 351.416 301.933 351.944 302.541 352.312C303.165 352.664 303.821 352.84 304.509 352.84C305.213 352.84 305.869 352.664 306.477 352.312C307.085 351.96 307.573 351.448 307.941 350.776C308.325 350.088 308.517 349.288 308.517 348.376Z" fill="white"/>
<g clip-path="url(#clip2)">
<path d="M272.693 194.902L280.674 218.826C280.917 219.555 280.749 220.358 280.235 220.929C279.721 221.5 278.939 221.75 278.188 221.584L247.391 214.742C238.729 218.421 229.41 220.3 219.999 220.268C185.823 220.268 158.133 196.396 158.133 166.934C158.133 137.473 185.823 113.601 219.999 113.601C254.175 113.601 281.866 137.473 281.866 166.934C281.826 176.99 278.616 186.777 272.693 194.902Z" fill="#FCE8E8"/>
<path d="M272.693 194.902C278.617 186.777 281.827 176.99 281.867 166.934C281.867 137.473 254.176 113.601 220 113.601C218.926 113.601 217.86 113.625 216.8 113.671C249.487 115.107 275.467 138.399 275.467 166.934C275.438 176.269 272.664 185.39 267.49 193.159C266.748 194.262 266.553 195.643 266.961 196.908L274.274 218.826C274.481 219.442 274.388 220.119 274.025 220.658L278.189 221.584C278.939 221.75 279.721 221.5 280.236 220.929C280.75 220.358 280.918 219.555 280.674 218.826L272.693 194.902Z" fill="#FAA4A4"/>
<path d="M218.976 196.801C190.56 196.801 187.766 172.161 188.022 160.811C188.363 167.745 202.059 173.334 218.934 173.334C235.958 173.334 249.76 167.638 249.867 160.619H249.931C250.208 171.883 247.542 196.801 218.976 196.801Z" fill="#FCE8E8"/>
<path d="M249.931 160.619H249.867C249.822 163.58 247.32 166.298 243.185 168.461C241.854 180.05 236.16 195.237 215.776 196.677C216.809 196.749 217.867 196.801 218.976 196.801C247.541 196.801 250.208 171.883 249.931 160.619Z" fill="#FAA4A4"/>
<path d="M249.866 160.533V160.618C249.76 167.637 235.957 173.332 218.933 173.332C202.058 173.332 188.362 167.743 188.021 160.81V160.767C188.004 160.69 187.997 160.611 188 160.533C188 153.471 201.845 147.733 218.933 147.733C236.021 147.733 249.866 153.471 249.866 160.533Z" fill="#F7A4A4"/>
<path d="M218.933 147.733C217.851 147.733 216.784 147.755 215.733 147.801C231.317 148.464 243.467 153.919 243.467 160.533V160.618C243.367 167.191 231.256 172.603 215.733 173.264C216.786 173.308 217.853 173.331 218.933 173.332C235.957 173.332 249.76 167.637 249.867 160.618V160.533C249.867 153.471 236.021 147.733 218.933 147.733Z" fill="#FA7F7F"/>
<path d="M222.888 113.689C220.866 113.606 218.835 113.58 216.802 113.67C184.113 115.104 158.133 138.398 158.133 166.933C158.133 198.967 189.734 221.745 223.287 220.23C192.226 218.799 164.533 196.919 164.533 166.933C164.533 138.487 190.346 115.259 222.888 113.689Z" fill="white"/>
<path d="M163.253 182.855L159.266 184.376C157.192 178.79 156.087 172.891 156 166.934H160.267C160.355 172.371 161.364 177.755 163.253 182.855Z" fill="white"/>
<path d="M159.027 177.562C157.849 177.568 156.889 176.617 156.883 175.439C156.877 174.261 157.827 173.301 159.006 173.295H159.027C160.205 173.295 161.16 174.25 161.16 175.428C161.16 176.607 160.205 177.562 159.027 177.562Z" fill="#F43B31"/>
<path d="M220 111.467C184.71 111.467 156 136.348 156 166.933C156 168.112 156.955 169.067 158.133 169.067C159.312 169.067 160.267 168.112 160.267 166.933C160.267 138.703 187.063 115.733 220 115.733C252.937 115.733 279.733 138.703 279.733 166.933C279.689 176.543 276.619 185.894 270.959 193.66C270.56 194.216 270.452 194.93 270.669 195.58L278.65 219.503L247.855 212.659C247.418 212.562 246.962 212.605 246.551 212.781C238.158 216.356 229.123 218.177 220 218.133C214.053 218.058 208.135 217.293 202.364 215.855C196.642 214.282 191.146 211.982 186.01 209.011C180.924 205.992 176.336 202.203 172.41 197.779C168.457 193.413 165.353 188.349 163.255 182.846C162.814 181.796 161.646 181.255 160.559 181.596C160.006 181.773 159.552 182.174 159.309 182.701C159.065 183.228 159.055 183.834 159.279 184.369C161.559 190.348 164.931 195.851 169.222 200.597C173.442 205.353 178.372 209.426 183.838 212.672C189.315 215.846 195.179 218.3 201.284 219.975C207.407 221.508 213.688 222.322 220 222.4C229.467 222.443 238.849 220.598 247.595 216.973L277.726 223.667C278.036 223.736 278.353 223.771 278.671 223.772C280.04 223.766 281.324 223.103 282.121 221.99C282.919 220.877 283.133 219.449 282.699 218.151L275.057 195.245C280.844 186.935 283.963 177.06 284 166.933C284 136.348 255.29 111.467 220 111.467V111.467Z" fill="#F43B31"/>
<path d="M209.12 120.905C183.287 125.266 164.533 144.622 164.533 166.934C164.533 168.112 165.488 169.068 166.667 169.068C167.845 169.068 168.8 168.112 168.8 166.934C168.8 146.712 186.059 129.123 209.837 125.121C211.001 124.923 211.784 123.819 211.586 122.655C211.388 121.491 210.284 120.708 209.12 120.905Z" fill="#F43B31"/>
<path d="M217.867 124.267C219.045 124.267 220 123.312 220 122.133C220 120.955 219.045 120 217.867 120C216.689 120 215.733 120.955 215.733 122.133C215.733 123.312 216.689 124.267 217.867 124.267Z" fill="#F43B31"/>
<path d="M196.29 166.933C192.435 165.062 190.218 162.807 190.148 160.646V160.533C190.149 160.517 190.149 160.502 190.148 160.486C190.186 157.885 193.44 155.112 198.875 153.056C199.977 152.639 200.533 151.408 200.117 150.306C199.7 149.203 198.469 148.648 197.367 149.064C189.947 151.867 185.866 155.94 185.866 160.533C185.866 160.586 185.881 160.635 185.883 160.686C185.721 167.968 186.766 181.358 195.421 190.225C201.064 196.004 208.985 198.933 218.973 198.933C228.962 198.933 236.893 196.002 242.525 190.222C243.674 189.038 244.715 187.752 245.636 186.382C246.641 185.865 247.709 185.479 248.812 185.233C249.288 185.122 249.798 185.019 250.329 184.898C255.281 183.831 263.569 182.043 264.676 173.828C265.361 170.758 264.309 167.559 261.934 165.495C259.056 163.497 255.459 162.83 252.055 163.662C252.087 162.553 252.085 161.529 252.055 160.597H252C252 160.576 252 160.556 252 160.535C252 157.952 250.694 154.176 244.469 150.865C243.795 150.491 242.971 150.509 242.315 150.914C241.659 151.318 241.272 152.045 241.302 152.815C241.333 153.586 241.777 154.279 242.464 154.63C245.862 156.437 247.733 158.534 247.733 160.533C247.733 165.578 235.906 171.2 218.933 171.2C211.263 171.409 203.635 169.995 196.55 167.048C196.466 167.004 196.379 166.965 196.29 166.933ZM259.223 168.802C260.397 169.965 260.861 171.666 260.441 173.265C259.786 178.124 255.266 179.475 249.422 180.731L248.597 180.913C250.277 176.815 251.341 172.49 251.754 168.081C254.231 167.216 256.962 167.477 259.229 168.795L259.223 168.802ZM247.449 168.285C246.925 175.308 244.122 181.967 239.466 187.251C234.664 192.168 227.767 194.666 218.973 194.666C210.18 194.666 203.283 192.168 198.474 187.244C193.833 181.982 191.035 175.349 190.506 168.352C196.166 172.676 206.532 175.466 218.933 175.466C231.404 175.466 241.815 172.646 247.456 168.279L247.449 168.285Z" fill="#F43B31"/>
<path d="M205.758 157.182C204.016 158.473 202.973 160.499 202.933 162.667C202.933 163.845 203.888 164.8 205.067 164.8C206.245 164.8 207.2 163.845 207.2 162.667C207.2 161.687 207.627 161.267 208.642 160.32C210.415 159.055 211.467 157.012 211.467 154.834C211.467 152.656 210.415 150.613 208.642 149.348C207.616 148.407 207.2 147.987 207.2 147.002C207.2 146.016 207.627 145.606 208.642 144.666C210.379 143.379 211.422 141.361 211.467 139.2C211.467 138.022 210.512 137.067 209.333 137.067C208.155 137.067 207.2 138.022 207.2 139.2C207.2 140.175 206.773 140.593 205.76 141.534C203.987 142.797 202.935 144.84 202.935 147.017C202.935 149.193 203.987 151.236 205.76 152.499C206.786 153.44 207.202 153.86 207.202 154.846C207.202 155.831 206.784 156.241 205.758 157.182Z" fill="#F43B31"/>
<path d="M218.558 157.182C216.816 158.473 215.773 160.499 215.733 162.667C215.733 163.845 216.689 164.8 217.867 164.8C219.045 164.8 220 163.845 220 162.667C220 161.687 220.427 161.267 221.442 160.32C223.215 159.055 224.267 157.012 224.267 154.834C224.267 152.656 223.215 150.613 221.442 149.348C220.416 148.407 220 147.987 220 147.002C220 146.016 220.427 145.606 221.442 144.666C223.179 143.379 224.222 141.361 224.267 139.2C224.267 138.022 223.312 137.067 222.133 137.067C220.955 137.067 220 138.022 220 139.2C220 140.175 219.573 140.593 218.56 141.534C216.787 142.797 215.735 144.84 215.735 147.017C215.735 149.193 216.787 151.236 218.56 152.499C219.586 153.44 220.002 153.86 220.002 154.846C220.002 155.831 219.584 156.241 218.558 157.182Z" fill="#F43B31"/>
<path d="M231.358 157.182C229.617 158.473 228.573 160.499 228.533 162.667C228.533 163.845 229.489 164.8 230.667 164.8C231.845 164.8 232.8 163.845 232.8 162.667C232.8 161.687 233.227 161.267 234.242 160.32C236.015 159.055 237.067 157.012 237.067 154.834C237.067 152.656 236.015 150.613 234.242 149.348C233.216 148.407 232.8 147.987 232.8 147.002C232.8 146.016 233.227 145.606 234.242 144.666C235.979 143.379 237.023 141.361 237.067 139.2C237.067 138.022 236.112 137.067 234.933 137.067C233.755 137.067 232.8 138.022 232.8 139.2C232.8 140.175 232.373 140.593 231.36 141.534C229.588 142.797 228.535 144.84 228.535 147.017C228.535 149.193 229.588 151.236 231.36 152.499C232.386 153.44 232.802 153.86 232.802 154.846C232.802 155.831 232.384 156.241 231.358 157.182Z" fill="#F43B31"/>
</g>
<defs>
<filter id="filter0_d" x="840" y="0" width="440" height="437" filterUnits="userSpaceOnUse" color-interpolation-filters="sRGB">
<feFlood flood-opacity="0" result="BackgroundImageFix"/>
<feColorMatrix in="SourceAlpha" type="matrix" values="0 0 0 0 0 0 0 0 0 0 0 0 0 0 0 0 0 0 127 0"/>
<feOffset/>
<feGaussianBlur stdDeviation="20"/>
<feColorMatrix type="matrix" values="0 0 0 0 0 0 0 0 0 0 0 0 0 0 0 0 0 0 0.1 0"/>
<feBlend mode="normal" in2="BackgroundImageFix" result="effect1_dropShadow"/>
<feBlend mode="normal" in="SourceGraphic" in2="effect1_dropShadow" result="shape"/>
</filter>
<filter id="filter1_d" x="0" y="0" width="440" height="437" filterUnits="userSpaceOnUse" color-interpolation-filters="sRGB">
<feFlood flood-opacity="0" result="BackgroundImageFix"/>
<feColorMatrix in="SourceAlpha" type="matrix" values="0 0 0 0 0 0 0 0 0 0 0 0 0 0 0 0 0 0 127 0"/>
<feOffset/>
<feGaussianBlur stdDeviation="20"/>
<feColorMatrix type="matrix" values="0 0 0 0 0 0 0 0 0 0 0 0 0 0 0 0 0 0 0.1 0"/>
<feBlend mode="normal" in2="BackgroundImageFix" result="effect1_dropShadow"/>
<feBlend mode="normal" in="SourceGraphic" in2="effect1_dropShadow" result="shape"/>
</filter>
<filter id="filter2_d" x="420" y="0" width="440" height="437" filterUnits="userSpaceOnUse" color-interpolation-filters="sRGB">
<feFlood flood-opacity="0" result="BackgroundImageFix"/>
<feColorMatrix in="SourceAlpha" type="matrix" values="0 0 0 0 0 0 0 0 0 0 0 0 0 0 0 0 0 0 127 0"/>
<feOffset/>
<feGaussianBlur stdDeviation="20"/>
<feColorMatrix type="matrix" values="0 0 0 0 0 0 0 0 0 0 0 0 0 0 0 0 0 0 0.1 0"/>
<feBlend mode="normal" in2="BackgroundImageFix" result="effect1_dropShadow"/>
<feBlend mode="normal" in="SourceGraphic" in2="effect1_dropShadow" result="shape"/>
</filter>
<clipPath id="clip0">
<rect x="996" y="104" width="128" height="128" fill="white"/>
</clipPath>
<clipPath id="clip1">
<rect x="576" y="104" width="128" height="128" fill="white"/>
</clipPath>
<clipPath id="clip2">
<rect x="156" y="104" width="128" height="128" fill="white"/>
</clipPath>
</defs>
</svg>
