<svg width="128" height="128" viewBox="0 0 128 128" fill="none" xmlns="http://www.w3.org/2000/svg">
<g clip-path="url(#clip0)">
<path d="M116.693 90.9024L124.674 114.826C124.917 115.555 124.749 116.358 124.235 116.929C123.721 117.5 122.939 117.75 122.188 117.584L91.3915 110.742C82.7293 114.421 73.4101 116.3 63.9995 116.268C29.8235 116.268 2.13281 92.3957 2.13281 62.9344C2.13281 33.4731 29.8235 9.60107 63.9995 9.60107C98.1755 9.60107 125.866 33.4731 125.866 62.9344C125.826 72.9899 122.616 82.7768 116.693 90.9024Z" fill="#FCE8E8"/>
<path d="M116.693 90.9024C122.617 82.7768 125.827 72.9899 125.867 62.9344C125.867 33.4731 98.1761 9.60107 64 9.60107C62.9263 9.60107 61.8596 9.62454 60.8 9.67147C93.487 11.1072 119.467 34.3989 119.467 62.9344C119.438 72.2694 116.664 81.3897 111.49 89.1595C110.748 90.2616 110.553 91.6433 110.961 92.9077L118.274 114.826C118.481 115.442 118.388 116.119 118.025 116.658L122.189 117.584C122.939 117.75 123.721 117.5 124.236 116.929C124.75 116.358 124.918 115.555 124.674 114.826L116.693 90.9024Z" fill="#FAA4A4"/>
<path d="M62.9762 92.8005C34.5602 92.8005 31.7656 68.1606 32.0216 56.8113C32.3629 63.7446 46.0589 69.3339 62.9336 69.3339C79.9576 69.3339 93.7602 63.6379 93.8669 56.6193H93.9309C94.2082 67.8832 91.5416 92.8005 62.9762 92.8005Z" fill="#FCE8E8"/>
<path d="M93.9308 56.6193H93.8668C93.822 59.5803 91.3196 62.2982 87.1852 64.4614C85.854 76.0496 80.1601 91.2368 59.7761 92.6768C60.8087 92.7493 61.8668 92.8005 62.9761 92.8005C91.5415 92.8005 94.2081 67.8832 93.9308 56.6193Z" fill="#FAA4A4"/>
<path d="M93.8662 56.5325V56.6179C93.7595 63.6365 79.9569 69.3325 62.9329 69.3325C46.0582 69.3325 32.3622 63.7432 32.0209 56.8098V56.7672C32.0041 56.6901 31.9969 56.6113 31.9995 56.5325C31.9995 49.4712 45.8449 43.7325 62.9329 43.7325C80.0209 43.7325 93.8662 49.4712 93.8662 56.5325Z" fill="#F7A4A4"/>
<path d="M62.9334 43.7325C61.8511 43.7325 60.7844 43.7553 59.7334 43.8008C75.3174 44.4643 87.4668 49.9192 87.4668 56.5325V56.6179C87.3665 63.1906 75.2556 68.6029 59.7334 69.2642C60.7858 69.3083 61.8525 69.3311 62.9334 69.3325C79.9574 69.3325 93.7601 63.6365 93.8668 56.6179V56.5325C93.8668 49.4712 80.0214 43.7325 62.9334 43.7325Z" fill="#FA7F7F"/>
<path d="M66.888 9.68924C64.8656 9.60604 62.8347 9.58044 60.8016 9.67004C28.1125 11.1036 2.13281 34.3975 2.13281 62.933C2.13281 94.9671 33.7339 117.745 67.2869 116.23C36.2256 114.799 8.53281 92.9191 8.53281 62.933C8.53281 34.4871 34.3461 11.2594 66.888 9.68924Z" fill="white"/>
<path d="M7.25333 78.8547L3.26613 80.3757C1.19208 74.7901 0.0874805 68.8912 0 62.9336H4.26667C4.35452 68.3713 5.36441 73.7548 7.25333 78.8547Z" fill="white"/>
<path d="M3.02696 73.5617C1.84875 73.5676 0.888853 72.6173 0.882962 71.4391C0.877071 70.2608 1.82742 69.3009 3.00563 69.295H3.02696C4.20517 69.295 5.1603 70.2502 5.1603 71.4284C5.1603 72.6066 4.20517 73.5617 3.02696 73.5617Z" fill="#F43B31"/>
<path d="M64 7.4668C28.7104 7.4668 0 32.3479 0 62.9335C0 64.1117 0.955126 65.0668 2.13333 65.0668C3.31154 65.0668 4.26667 64.1117 4.26667 62.9335C4.26667 34.7031 31.0635 11.7335 64 11.7335C96.9365 11.7335 123.733 34.7031 123.733 62.9335C123.689 72.5428 120.619 81.8941 114.959 89.6599C114.56 90.2162 114.452 90.9304 114.669 91.5799L122.65 115.503L91.8549 108.659C91.4184 108.562 90.9625 108.605 90.5515 108.781C82.1582 112.356 73.1228 114.177 64 114.133C58.053 114.058 52.1347 113.293 46.3637 111.855C40.6423 110.282 35.1461 107.982 30.0096 105.011C24.9237 101.992 20.336 98.2029 16.4096 93.7793C12.457 89.4135 9.35265 84.3492 7.25547 78.846C6.81363 77.7961 5.64568 77.2547 4.55893 77.5959C4.00573 77.7727 3.55217 78.1736 3.30879 78.7009C3.06542 79.2282 3.05458 79.8335 3.27893 80.3692C5.55947 86.3479 8.9312 91.8507 13.2224 96.5975C17.4418 101.353 22.372 105.426 27.8379 108.672C33.3154 111.846 39.1792 114.3 45.2843 115.975C51.4074 117.508 57.6884 118.322 64 118.4C73.4675 118.443 82.8485 116.598 91.5947 112.973L121.726 119.667C122.036 119.736 122.353 119.771 122.671 119.772C124.04 119.766 125.324 119.103 126.121 117.99C126.919 116.877 127.133 115.449 126.699 114.151L119.057 91.2449C124.844 82.9348 127.963 73.0598 128 62.9335C128 32.3479 99.2896 7.4668 64 7.4668V7.4668Z" fill="#F43B31"/>
<path d="M53.12 16.9055C27.2875 21.266 8.53333 40.6217 8.53333 62.9342C8.53333 64.1124 9.48845 65.0675 10.6667 65.0675C11.8449 65.0675 12.8 64.1124 12.8 62.9342C12.8 42.7124 30.0587 25.1231 53.8368 21.1209C55.0009 20.923 55.7841 19.8189 55.5861 18.6548C55.3882 17.4907 54.2841 16.7075 53.12 16.9055Z" fill="#F43B31"/>
<path d="M61.8667 20.2667C63.0449 20.2667 64 19.3115 64 18.1333C64 16.9551 63.0449 16 61.8667 16C60.6885 16 59.7334 16.9551 59.7334 18.1333C59.7334 19.3115 60.6885 20.2667 61.8667 20.2667Z" fill="#F43B31"/>
<path d="M40.2897 62.9329C36.4347 61.062 34.2182 58.807 34.1478 56.646V56.5329C34.1488 56.5173 34.1488 56.5016 34.1478 56.486C34.1862 53.8854 37.4395 51.1121 42.8753 49.0556C43.9775 48.6391 44.5334 47.4079 44.1169 46.3057C43.7004 45.2035 42.4692 44.6476 41.367 45.0641C33.9473 47.8673 29.8662 51.9398 29.8662 56.5329C29.8662 56.5862 29.8811 56.6353 29.8833 56.6865C29.7211 63.9676 30.7665 77.3585 39.4214 86.2246C45.0641 92.0038 52.9851 94.9329 62.9734 94.9329C72.9617 94.9329 80.8934 92.0017 86.5254 86.2225C87.6744 85.0376 88.7153 83.7525 89.6358 82.3825C90.6412 81.8652 91.7088 81.4787 92.8123 81.2326C93.2881 81.1217 93.7979 81.0193 94.3291 80.8977C99.2806 79.831 107.569 78.0433 108.676 69.8278C109.361 66.7576 108.309 63.5587 105.934 61.495C103.056 59.4969 99.4586 58.8296 96.055 59.6625C96.087 58.5532 96.0849 57.5292 96.055 56.5969H95.9995C95.9995 56.5756 95.9995 56.5564 95.9995 56.535C95.9995 53.9516 94.6939 50.1756 88.4689 46.8646C87.7948 46.4906 86.9714 46.5094 86.315 46.9137C85.6587 47.3181 85.2715 48.045 85.3023 48.8153C85.3331 49.5856 85.777 50.2793 86.4635 50.63C89.8619 52.4369 91.7329 54.534 91.7329 56.5329C91.7329 61.5782 79.9057 67.1996 62.9329 67.1996C55.2626 67.4094 47.6348 65.9946 40.5499 63.0481C40.4659 63.0038 40.379 62.9653 40.2897 62.9329ZM103.223 64.8017C104.397 65.9653 104.861 67.6662 104.441 69.2646C103.786 74.1244 99.2657 75.4747 93.4225 76.7313L92.5969 76.9126C94.2769 72.8146 95.3409 68.4903 95.7542 64.0806C98.2308 63.2161 100.962 63.4771 103.229 64.7953L103.223 64.8017ZM91.4492 64.2854C90.9252 71.308 88.1222 77.9674 83.4662 83.2508C78.6641 88.1681 71.767 90.6662 62.9734 90.6662C54.1798 90.6662 47.2827 88.1681 42.4742 83.2444C37.8325 77.9819 35.0349 71.3486 34.5062 64.3516C40.1659 68.6758 50.5318 71.4662 62.9329 71.4662C75.4043 71.4662 85.815 68.646 91.4555 64.279L91.4492 64.2854Z" fill="#F43B31"/>
<path d="M49.7579 53.1818C48.0165 54.4729 46.973 56.4992 46.9333 58.6666C46.9333 59.8448 47.8885 60.7999 49.0667 60.7999C50.2449 60.7999 51.2 59.8448 51.2 58.6666C51.2 57.6874 51.6267 57.2671 52.6422 56.32C54.4148 55.0551 55.467 53.0117 55.467 50.8341C55.467 48.6565 54.4148 46.6131 52.6422 45.3482C51.616 44.4074 51.2 43.9872 51.2 43.0016C51.2 42.016 51.6267 41.6064 52.6422 40.6656C54.3794 39.3795 55.4225 37.361 55.4667 35.2C55.4667 34.0218 54.5116 33.0667 53.3334 33.0667C52.1552 33.0667 51.2 34.0218 51.2 35.2C51.2 36.1749 50.7734 36.593 49.76 37.5338C47.9874 38.7973 46.935 40.8397 46.935 43.0165C46.935 45.1933 47.9874 47.2357 49.76 48.4992C50.7862 49.44 51.2022 49.8602 51.2022 50.8458C51.2022 51.8314 50.784 52.241 49.7579 53.1818Z" fill="#F43B31"/>
<path d="M62.5579 53.1818C60.8165 54.4729 59.773 56.4992 59.7334 58.6666C59.7334 59.8448 60.6885 60.7999 61.8667 60.7999C63.0449 60.7999 64.0001 59.8448 64.0001 58.6666C64.0001 57.6874 64.4267 57.2671 65.4422 56.32C67.2148 55.0551 68.267 53.0117 68.267 50.8341C68.267 48.6565 67.2148 46.6131 65.4422 45.3482C64.4161 44.4074 64.0001 43.9872 64.0001 43.0016C64.0001 42.016 64.4267 41.6064 65.4422 40.6656C67.1793 39.3795 68.2225 37.361 68.2667 35.2C68.2667 34.0218 67.3116 33.0667 66.1334 33.0667C64.9552 33.0667 64.0001 34.0218 64.0001 35.2C64.0001 36.1749 63.5734 36.593 62.5601 37.5338C60.7875 38.7973 59.7351 40.8397 59.7351 43.0165C59.7351 45.1933 60.7875 47.2357 62.5601 48.4992C63.5862 49.44 64.0022 49.8602 64.0022 50.8458C64.0022 51.8314 63.5841 52.241 62.5579 53.1818Z" fill="#F43B31"/>
<path d="M75.358 53.1818C73.6165 54.4729 72.5731 56.4992 72.5334 58.6666C72.5334 59.8448 73.4886 60.7999 74.6668 60.7999C75.845 60.7999 76.8001 59.8448 76.8001 58.6666C76.8001 57.6874 77.2268 57.2671 78.2422 56.32C80.0149 55.0551 81.0671 53.0117 81.0671 50.8341C81.0671 48.6565 80.0149 46.6131 78.2422 45.3482C77.2161 44.4074 76.8001 43.9872 76.8001 43.0016C76.8001 42.016 77.2268 41.6064 78.2422 40.6656C79.9794 39.3795 81.0225 37.361 81.0668 35.2C81.0668 34.0218 80.1116 33.0667 78.9334 33.0667C77.7552 33.0667 76.8001 34.0218 76.8001 35.2C76.8001 36.1749 76.3734 36.593 75.3601 37.5338C73.5875 38.7973 72.5351 40.8397 72.5351 43.0165C72.5351 45.1933 73.5875 47.2357 75.3601 48.4992C76.3862 49.44 76.8022 49.8602 76.8022 50.8458C76.8022 51.8314 76.3841 52.241 75.358 53.1818Z" fill="#F43B31"/>
</g>
<defs>
<clipPath id="clip0">
<rect width="128" height="128" fill="white"/>
</clipPath>
</defs>
</svg>
