<svg width="128" height="128" viewBox="0 0 128 128" fill="none" xmlns="http://www.w3.org/2000/svg">
<g clip-path="url(#clip0)">
<path d="M59.7327 78.998V106.582C49.9373 106.485 40.1944 105.138 30.7407 102.571C23.1673 100.331 18.1967 97.3234 17.2367 93.9954V93.9314C17.1176 93.5666 17.0599 93.1845 17.066 92.8007C17.066 89.0887 21.93 85.7394 29.866 83.2861C30.1433 83.1794 30.442 83.0941 30.7407 83.0087C40.1965 80.453 49.9381 79.1054 59.7327 78.998Z" fill="#F7A4A4"/>
<path d="M110.932 92.8007C110.939 93.1845 110.881 93.5666 110.762 93.9314V93.9954C109.802 97.3447 104.81 100.374 97.1938 102.614C87.7554 105.143 78.0366 106.477 68.2657 106.582V78.998C76.1516 79.139 84.0074 80.0103 91.7324 81.6007C92.2231 81.7074 92.6924 81.8141 93.1618 81.9421C94.5911 82.2621 95.9351 82.6247 97.1938 82.9874C97.5138 83.0727 97.8338 83.1794 98.1325 83.2647C106.068 85.7394 110.932 89.1101 110.932 92.8007Z" fill="#F7A4A4"/>
<path d="M110.763 93.9956C109.047 112.061 93.8795 125.861 75.7333 125.868H52.2666C34.1204 125.861 18.9529 112.061 17.2373 93.9956C18.1973 97.3236 23.168 100.332 30.7413 102.572C40.1951 105.138 49.9379 106.486 59.7333 106.582C61.1413 106.646 62.5493 106.668 64 106.668C65.4506 106.668 66.8586 106.646 68.2666 106.582C78.0375 106.477 87.7563 105.144 97.1946 102.614C104.811 100.374 109.803 97.3449 110.763 93.9956Z" fill="#FCE8E8"/>
<path d="M103.142 100.449C98.7872 115.503 85.0045 125.866 69.333 125.868H75.733C93.8792 125.861 109.047 112.061 110.762 93.9956C110.08 96.3636 107.355 98.5609 103.142 100.449Z" fill="#FCCACA"/>
<path d="M74.666 21.3324V27.7324C74.6712 28.2906 74.6212 28.848 74.5167 29.3964C73.706 34.5772 69.2432 38.3959 63.9994 38.3959C58.7556 38.3959 54.2928 34.5772 53.4821 29.3964C53.3776 28.848 53.3276 28.2906 53.3328 27.7324V21.3324H74.666Z" fill="#F7A4A4"/>
<path d="M81.8767 5.14228L74.6661 21.3343H53.3327L46.122 5.14228C45.8324 4.4791 45.8962 3.71468 46.2916 3.10862C46.6871 2.50256 47.3611 2.13632 48.0847 2.13428H79.9141C80.6377 2.13632 81.3117 2.50256 81.7071 3.10862C82.1026 3.71468 82.1663 4.4791 81.8767 5.14228Z" fill="#FCE8E8"/>
<path d="M79.9138 2.13428H73.5138C74.2374 2.13632 74.9114 2.50256 75.3069 3.10862C75.7023 3.71468 75.766 4.4791 75.4764 5.14228L68.2657 21.3343H74.6658L81.8765 5.14228C82.1661 4.4791 82.1023 3.71468 81.7069 3.10862C81.3114 2.50256 80.6374 2.13632 79.9138 2.13428Z" fill="#FCCACA"/>
<path d="M88.1489 37.7167C84.3278 33.9031 79.6556 31.0515 74.5169 29.3967C74.4796 29.6268 74.4297 29.8547 74.3676 30.0794C74.3405 30.2835 74.2904 30.4839 74.2182 30.6767C74.1114 31.0936 73.9687 31.5005 73.7916 31.8927C72.133 35.8334 68.275 38.397 63.9996 38.3994C62.8962 38.408 61.7994 38.2277 60.7569 37.8661C58.6492 37.2115 56.804 35.9041 55.4876 34.1327C55.1926 33.7686 54.9353 33.3754 54.7196 32.9594C54.5489 32.6394 54.3782 32.2981 54.2289 31.9567C54.1222 31.7221 54.0369 31.4874 53.9516 31.2527C53.7402 30.6493 53.5832 30.0281 53.4822 29.3967C52.6289 29.6741 51.7756 29.9941 50.9649 30.3354C50.6017 30.4739 50.2457 30.6305 49.8982 30.8047C49.1942 31.1247 48.4902 31.4661 47.8076 31.8287C36.7477 37.7688 29.8529 49.312 29.8662 61.8661L29.8662 83.2847C30.1436 83.1781 30.4422 83.0927 30.7409 83.0074C40.1968 80.4517 49.9383 79.1041 59.7329 78.9967V78.9327C59.7399 76.5792 61.6461 74.6731 63.9996 74.6661C66.3487 74.6835 68.2488 76.5836 68.2662 78.9327V78.9967C76.152 79.1377 84.0078 80.009 91.7329 81.5994C92.2236 81.7061 92.6929 81.8127 93.1622 81.9407C94.5916 82.2607 95.9356 82.6234 97.1942 82.9861C97.5142 83.0714 97.8342 83.1781 98.1329 83.2634V61.8661C98.1431 52.81 94.5511 44.1217 88.1489 37.7167ZM83.1996 57.5994C83.1996 58.7776 82.2444 59.7327 81.0662 59.7327H46.9329C45.7547 59.7327 44.7996 58.7776 44.7996 57.5994V51.1994C44.7996 50.0212 45.7547 49.0661 46.9329 49.0661H81.0662C82.2444 49.0661 83.1996 50.0212 83.1996 51.1994V57.5994Z" fill="#FCE8E8"/>
<path d="M57.5994 38.3994C58.687 38.3893 59.7665 38.2109 60.7994 37.8703C56.9509 36.6618 54.1172 33.3803 53.4821 29.3967C51.5205 30.0358 49.6218 30.8535 47.8096 31.8394C49.4494 35.8018 53.3111 38.3894 57.5994 38.3994Z" fill="#FCCACA"/>
<path d="M88.1488 37.7167C84.3277 33.9031 79.6555 31.0515 74.5168 29.3967C74.3734 30.2477 74.1248 31.0776 73.7765 31.8671C76.701 33.4242 79.3859 35.3942 81.7488 37.7167C88.151 44.1217 91.7429 52.81 91.7328 61.8661V81.6165C93.6656 82.0431 95.5024 82.489 97.1941 82.9861C97.5141 83.0714 97.8341 83.1781 98.1328 83.2634L98.1328 61.8661C98.1429 52.81 94.551 44.1217 88.1488 37.7167Z" fill="#FCCACA"/>
<path d="M81.0657 49.0667H46.9324C45.7542 49.0667 44.7991 50.0218 44.7991 51.2V57.6C44.7991 58.7782 45.7542 59.7333 46.9324 59.7333H81.0657C82.2439 59.7333 83.1991 58.7782 83.1991 57.6V51.2C83.1991 50.0218 82.2439 49.0667 81.0657 49.0667Z" fill="#FCE8E8"/>
<path d="M81.0661 49.0667H74.6661C75.8443 49.0667 76.7995 50.0218 76.7995 51.2V57.6C76.7995 58.7782 75.8443 59.7333 74.6661 59.7333H81.0661C82.2444 59.7333 83.1995 58.7782 83.1995 57.6V51.2C83.1995 50.0218 82.2444 49.0667 81.0661 49.0667Z" fill="#FCCACA"/>
<path d="M68.266 78.9344V106.582C66.858 106.646 65.45 106.668 63.9993 106.668C62.5487 106.668 61.1407 106.646 59.7327 106.582V78.9344C59.7397 76.5809 61.6458 74.6748 63.9993 74.6677C66.3485 74.6851 68.2486 76.5852 68.266 78.9344Z" fill="#FCE8E8"/>
<path d="M52.266 125.868H58.666C40.5198 125.861 25.3523 112.061 23.6367 93.9956V93.9316C23.5176 93.5668 23.4599 93.1847 23.466 92.8009C23.466 89.089 28.33 85.7396 36.266 83.2863V61.8676C36.259 49.3242 43.1493 37.7928 54.1988 31.8559C54.1817 31.8047 54.1583 31.7385 54.1135 31.6276C54.1412 31.7001 54.1753 31.7769 54.2073 31.8516C56.0209 30.8641 57.9202 30.0429 59.882 29.3983C59.6271 26.718 59.5772 24.0222 59.7327 21.3343L52.522 5.14228C52.2324 4.4791 52.2961 3.71468 52.6916 3.10862C53.087 2.50256 53.761 2.13632 54.4847 2.13428H48.0847C47.361 2.13632 46.687 2.50256 46.2916 3.10862C45.8961 3.71468 45.8324 4.4791 46.122 5.14228L53.3327 21.3343C53.1772 24.0222 53.2271 26.718 53.482 29.3983C39.3994 33.9516 29.86 47.0672 29.866 61.8676V83.2863C21.93 85.7396 17.066 89.089 17.066 92.8009C17.0599 93.1847 17.1176 93.5668 17.2367 93.9316V93.9956C18.9523 112.061 34.1198 125.861 52.266 125.868Z" fill="white"/>
<path d="M32.1807 44.4819L35.9226 46.5299C34.6494 48.8742 33.6651 51.3642 32.9913 53.9454C32.365 56.5402 32.0322 59.1973 31.9993 61.8664H27.7327C27.7661 58.8426 28.1433 55.8323 28.8569 52.8937C29.6183 49.9649 30.7344 47.1401 32.1807 44.4819Z" fill="white"/>
<path d="M113.066 92.8C113.066 88.3968 108.646 84.5973 100.266 81.7323V61.8667C100.295 46.7657 90.9322 33.2385 76.7887 27.9467C76.7887 27.8784 76.7994 27.8101 76.7994 27.7333V21.7856L83.816 5.99893C84.4023 4.67905 84.2812 3.15211 83.494 1.9412C82.7068 0.730297 81.3605 -0.000183056 79.9162 2.61172e-07H48.0826C46.6377 -0.000504358 45.2908 0.730262 44.5035 1.94179C43.7162 3.15331 43.5955 4.68097 44.1829 6.00107L51.1994 21.7856V27.7333C51.1994 27.8165 51.1994 27.8955 51.2122 27.9787C43.1066 31.0398 36.3586 36.8915 32.1807 44.4821C31.8879 44.9865 31.82 45.5905 31.9935 46.1473C32.1671 46.7041 32.5662 47.1626 33.0938 47.4112C34.1226 47.8941 35.3499 47.5118 35.9226 46.5301C39.4886 40.0557 45.1768 35.0079 52.0293 32.2368C53.8946 37.2283 58.6616 40.5384 63.9903 40.5422C69.319 40.546 74.0907 37.2427 75.9632 32.2539C88.1042 37.0551 96.0583 48.8109 95.9994 61.8667V80.4501C87.5029 78.3419 78.8028 77.1616 70.0517 76.9301C69.755 75.9885 69.2345 75.1328 68.5349 74.4363C67.3446 73.2117 65.7071 72.5247 63.9994 72.5333C61.2492 72.5431 58.8153 74.3156 57.9621 76.9301C49.2054 77.1571 40.4997 78.3388 31.9994 80.4544V61.8667C31.9994 60.6885 31.0443 59.7333 29.8661 59.7333C28.6879 59.7333 27.7327 60.6885 27.7327 61.8667V81.7323C19.353 84.5995 14.9327 88.3989 14.9327 92.8C14.9384 93.3309 15.01 93.8591 15.1461 94.3723C16.9533 113.498 33.0551 128.085 52.2661 128H75.7327C94.8513 128.068 110.897 113.608 112.812 94.5856C112.98 94.0053 113.066 93.4042 113.066 92.8ZM79.9162 4.26667L73.2794 19.2H54.7194L48.0826 4.26667H79.9162ZM63.9994 36.2667C59.2866 36.2667 55.4661 32.4462 55.4661 27.7333V23.4667H72.5327V27.7333C72.5327 32.4462 68.7122 36.2667 63.9994 36.2667ZM108.799 92.8C108.799 94.1781 107.15 96.2005 102.924 98.2101L72.7226 90.6667L95.9994 84.8704C96.1936 84.9237 96.4026 84.9728 96.5925 85.0283C105.599 87.68 108.799 90.8672 108.799 92.8ZM70.3994 81.2117C75.8316 81.4099 81.2464 81.9435 86.6127 82.8096L70.3994 86.8501V81.2117ZM70.3994 94.4853L95.7008 100.8C87.4273 102.934 78.9404 104.134 70.3994 104.375V94.4853ZM63.9994 76.8C64.5739 76.8079 65.1217 77.0439 65.5219 77.4562C65.9221 77.8684 66.1419 78.4229 66.1327 78.9973V104.495C64.7105 104.521 63.2883 104.521 61.8661 104.495V78.9333C61.8661 77.7551 62.8212 76.8 63.9994 76.8ZM57.5994 86.8907L41.2815 82.8245C46.6819 81.9476 52.1318 81.409 57.5994 81.2117V86.8907ZM57.5994 104.384C49.0281 104.147 40.5114 102.938 32.2127 100.781L57.5994 94.4427V104.384ZM31.3466 85.0539C31.5365 84.9963 31.7477 84.9472 31.9397 84.8917L55.1098 90.6667L24.9978 98.176C20.8314 96.2005 19.1994 94.2229 19.1994 92.8C19.1994 90.7883 22.3994 87.7013 31.3466 85.0539ZM75.7327 123.733H52.2661C37.858 123.801 25.0855 114.477 20.7589 100.734C23.7094 102.418 26.8593 103.725 30.1349 104.625C39.7634 107.229 49.6823 108.606 59.6559 108.723C61.0896 108.774 62.5231 108.8 63.9994 108.8C65.4757 108.8 66.9093 108.774 68.3173 108.723C78.2748 108.602 88.178 107.235 97.7957 104.653C101.083 103.753 104.245 102.445 107.208 100.759C102.88 114.485 90.1239 123.796 75.7327 123.733Z" fill="#FF4242"/>
<path d="M52.266 115.2C45.7581 115.214 39.5152 112.623 34.9284 108.007C34.0954 107.173 32.7444 107.173 31.9108 108.006C31.0772 108.839 31.0767 110.19 31.9097 111.023C37.2954 116.443 44.6253 119.483 52.266 119.467C53.4442 119.467 54.3993 118.512 54.3993 117.334C54.3993 116.155 53.4442 115.2 52.266 115.2Z" fill="#FF4242"/>
<path d="M30.9753 55.5383C29.7971 55.5447 28.8367 54.5949 28.8302 53.4167C28.8238 52.2385 29.7736 51.2781 30.9518 51.2716H30.9753C32.1535 51.2716 33.1086 52.2267 33.1086 53.4049C33.1086 54.5831 32.1535 55.5383 30.9753 55.5383Z" fill="#FF4242"/>
<path d="M85.3327 51.2C85.3327 48.8436 83.4225 46.9333 81.0661 46.9333H46.9328C44.5764 46.9333 42.6661 48.8436 42.6661 51.2V57.6C42.6661 59.9564 44.5764 61.8667 46.9328 61.8667H81.0661C83.4225 61.8667 85.3327 59.9564 85.3327 57.6V51.2ZM46.9328 57.6V51.2H81.0661V57.6H46.9328Z" fill="#FF4242"/>
<path d="M74.6658 70.401C75.844 70.401 76.7991 69.4459 76.7991 68.2677C76.7991 67.0895 75.844 66.1344 74.6658 66.1344C73.4876 66.1344 72.5325 67.0895 72.5325 68.2677C72.5325 69.4459 73.4876 70.401 74.6658 70.401Z" fill="#FF4242"/>
<path d="M83.1997 70.401C84.3779 70.401 85.333 69.4459 85.333 68.2677C85.333 67.0895 84.3779 66.1344 83.1997 66.1344C82.0215 66.1344 81.0664 67.0895 81.0664 68.2677C81.0664 69.4459 82.0215 70.401 83.1997 70.401Z" fill="#FF4242"/>
<path d="M44.7995 70.401C45.9777 70.401 46.9328 69.4459 46.9328 68.2677C46.9328 67.0895 45.9777 66.1344 44.7995 66.1344C43.6213 66.1344 42.6661 67.0895 42.6661 68.2677C42.6661 69.4459 43.6213 70.401 44.7995 70.401Z" fill="#FF4242"/>
<path d="M53.3327 70.401C54.5109 70.401 55.466 69.4459 55.466 68.2677C55.466 67.0895 54.5109 66.1344 53.3327 66.1344C52.1545 66.1344 51.1993 67.0895 51.1993 68.2677C51.1993 69.4459 52.1545 70.401 53.3327 70.401Z" fill="#FF4242"/>
</g>
<defs>
<clipPath id="clip0">
<rect width="128" height="128" fill="white"/>
</clipPath>
</defs>
</svg>
